<?xml version="1.0" encoding="UTF-8"?>
<svg id="Layer_1" data-name="Layer 1" xmlns="http://www.w3.org/2000/svg" viewBox="0 0 406.27 487.67">
  <defs>
    <style>
      .cls-1 {
        fill: none;
        stroke: #231f20;
        stroke-miterlimit: 10;
        stroke-width: 3px;
      }

      .cls-2 {
        fill: #231f20;
        stroke-width: 0px;
      }
    </style>
  </defs>
  <g>
    <circle class="cls-1" cx="203.34" cy="253.15" r="187.5"/>
    <polygon class="cls-2" points="390.43 239.43 374.58 266.87 406.27 266.87 390.43 239.43"/>
    <polygon class="cls-2" points="15.84 266.87 31.68 239.43 0 239.43 15.84 266.87"/>
  </g>
  <g>
    <path class="cls-2" d="m142.79,258.47v-11.03h-4.32v-1.57h10.42v1.57h-4.32v11.03h-1.78Z"/>
    <path class="cls-2" d="m154.85,258.58c-1.02,0-1.92-.21-2.69-.63-.77-.42-1.37-1-1.8-1.73-.43-.73-.64-1.57-.64-2.52s.21-1.79.62-2.52.98-1.31,1.71-1.72c.73-.41,1.54-.62,2.46-.62s1.74.2,2.45.61c.71.41,1.26.98,1.67,1.72.4.74.6,1.6.6,2.58,0,.07,0,.16,0,.25,0,.1-.02.19-.03.27h-8.12v-1.24h7.22l-.7.43c.01-.61-.11-1.16-.38-1.64-.26-.48-.63-.85-1.09-1.12s-1-.4-1.61-.4-1.13.13-1.6.4c-.47.27-.83.65-1.1,1.13-.26.49-.4,1.04-.4,1.67v.29c0,.64.15,1.2.44,1.7.29.5.7.89,1.23,1.16.53.28,1.13.41,1.82.41.56,0,1.08-.1,1.54-.29s.87-.48,1.21-.86l.95,1.12c-.43.5-.97.89-1.61,1.15-.64.26-1.36.4-2.15.4Z"/>
    <path class="cls-2" d="m164.35,258.58c-.79,0-1.55-.11-2.26-.32-.71-.22-1.28-.48-1.68-.79l.72-1.37c.41.28.91.51,1.51.7.6.19,1.21.29,1.84.29.8,0,1.38-.11,1.74-.34s.53-.55.53-.95c0-.3-.11-.53-.32-.7-.22-.17-.5-.29-.85-.38-.35-.08-.75-.16-1.18-.22-.43-.07-.86-.15-1.3-.25-.43-.1-.83-.25-1.19-.43-.36-.19-.65-.44-.86-.77s-.32-.77-.32-1.32.16-1.08.49-1.51c.32-.43.78-.77,1.38-1,.59-.23,1.3-.35,2.11-.35.62,0,1.26.08,1.9.23.64.15,1.17.36,1.57.64l-.74,1.37c-.43-.29-.88-.49-1.35-.59-.47-.11-.94-.16-1.4-.16-.76,0-1.32.12-1.69.37-.37.25-.56.56-.56.95,0,.32.11.57.33.75s.51.31.86.4c.35.1.75.18,1.18.24.43.07.86.15,1.3.25.43.1.82.24,1.18.42s.64.43.86.76c.22.32.33.76.33,1.3,0,.58-.17,1.07-.5,1.49-.34.42-.81.75-1.42.98-.61.23-1.34.35-2.2.35Z"/>
    <path class="cls-2" d="m169.27,250.35v-1.42h6.08v1.42h-6.08Zm4.64,8.23c-.96,0-1.7-.26-2.23-.77-.53-.52-.79-1.25-.79-2.21v-8.75h1.73v8.68c0,.52.13.91.39,1.19.26.28.63.41,1.11.41.54,0,.99-.15,1.35-.45l.54,1.24c-.26.23-.58.4-.94.5-.37.11-.75.16-1.14.16Z"/>
    <path class="cls-2" d="m185.72,258.58c-.71,0-1.33-.12-1.86-.36-.53-.24-.94-.57-1.23-1-.29-.43-.43-.91-.43-1.45s.12-.98.37-1.4c.25-.42.65-.76,1.21-1.01s1.31-.38,2.26-.38h3.02v1.24h-2.95c-.86,0-1.45.14-1.75.43-.3.29-.45.64-.45,1.04,0,.47.19.84.56,1.12.37.28.89.42,1.55.42s1.22-.14,1.7-.43c.49-.29.84-.71,1.05-1.26l.34,1.19c-.23.56-.63,1.01-1.21,1.34-.58.33-1.3.5-2.18.5Zm3.13-.11v-2.02l-.09-.38v-3.44c0-.73-.21-1.3-.64-1.7-.43-.4-1.06-.6-1.92-.6-.56,0-1.12.09-1.66.28s-1,.44-1.37.75l-.72-1.3c.49-.4,1.08-.7,1.77-.91s1.41-.31,2.17-.31c1.31,0,2.32.32,3.02.95.71.64,1.06,1.61,1.06,2.92v5.76h-1.64Z"/>
    <path class="cls-2" d="m198.79,248.84c.78,0,1.47.15,2.06.45.59.3,1.06.76,1.4,1.37s.5,1.39.5,2.32v5.49h-1.73v-5.29c0-.92-.23-1.62-.67-2.09-.45-.47-1.08-.7-1.9-.7-.61,0-1.15.12-1.6.36-.46.24-.81.59-1.05,1.06-.25.47-.37,1.05-.37,1.75v4.91h-1.73v-9.54h1.66v2.57l-.27-.68c.31-.62.79-1.11,1.44-1.46s1.4-.52,2.27-.52Z"/>
    <path class="cls-2" d="m209.89,258.58c-.92,0-1.75-.2-2.48-.61-.73-.41-1.3-.98-1.72-1.71-.42-.73-.63-1.58-.63-2.56s.21-1.82.63-2.55c.42-.73.99-1.29,1.72-1.7.73-.41,1.55-.61,2.48-.61.8,0,1.53.18,2.18.54.65.36,1.17.9,1.56,1.62.39.72.58,1.62.58,2.7s-.19,1.98-.57,2.7c-.38.72-.89,1.26-1.54,1.63s-1.39.55-2.21.55Zm.14-1.51c.6,0,1.14-.14,1.63-.41s.87-.67,1.15-1.18c.28-.51.42-1.1.42-1.77s-.14-1.27-.42-1.77-.67-.88-1.15-1.16c-.49-.28-1.03-.41-1.63-.41s-1.16.14-1.64.41c-.48.28-.86.66-1.15,1.16s-.43,1.09-.43,1.77.14,1.26.43,1.77c.29.51.67.9,1.15,1.18s1.03.41,1.64.41Zm3.26,1.4v-2.57l.11-2.21-.18-2.21v-6.35h1.73v13.36h-1.66Z"/>
    <path class="cls-2" d="m223.07,258.47v-13.36h1.73v13.36h-1.73Z"/>
    <path class="cls-2" d="m232.34,258.58c-1.02,0-1.92-.21-2.69-.63-.77-.42-1.37-1-1.8-1.73s-.64-1.57-.64-2.52.21-1.79.62-2.52.98-1.31,1.71-1.72c.73-.41,1.54-.62,2.46-.62s1.74.2,2.45.61c.71.41,1.26.98,1.67,1.72.4.74.6,1.6.6,2.58,0,.07,0,.16,0,.25,0,.1-.02.19-.03.27h-8.12v-1.24h7.22l-.7.43c.01-.61-.11-1.16-.38-1.64-.26-.48-.63-.85-1.09-1.12s-1-.4-1.61-.4-1.13.13-1.6.4c-.47.27-.83.65-1.1,1.13-.26.49-.4,1.04-.4,1.67v.29c0,.64.15,1.2.44,1.7s.71.89,1.23,1.16c.53.28,1.13.41,1.82.41.56,0,1.08-.1,1.54-.29s.87-.48,1.21-.86l.95,1.12c-.43.5-.97.89-1.61,1.15-.64.26-1.36.4-2.15.4Z"/>
    <path class="cls-2" d="m241.9,258.58c-.71,0-1.33-.12-1.86-.36-.53-.24-.95-.57-1.23-1-.29-.43-.43-.91-.43-1.45s.12-.98.37-1.4c.25-.42.65-.76,1.21-1.01.56-.25,1.31-.38,2.26-.38h3.02v1.24h-2.95c-.86,0-1.45.14-1.75.43-.3.29-.45.64-.45,1.04,0,.47.19.84.56,1.12.37.28.89.42,1.55.42s1.22-.14,1.7-.43c.49-.29.84-.71,1.05-1.26l.34,1.19c-.23.56-.63,1.01-1.21,1.34-.58.33-1.3.5-2.18.5Zm3.13-.11v-2.02l-.09-.38v-3.44c0-.73-.21-1.3-.64-1.7-.43-.4-1.06-.6-1.92-.6-.56,0-1.12.09-1.66.28s-1,.44-1.37.75l-.72-1.3c.49-.4,1.08-.7,1.77-.91.69-.21,1.41-.31,2.17-.31,1.31,0,2.32.32,3.02.95.71.64,1.06,1.61,1.06,2.92v5.76h-1.64Z"/>
    <path class="cls-2" d="m249.87,258.47v-9.54h1.66v2.59l-.16-.65c.26-.66.71-1.16,1.33-1.51s1.39-.52,2.3-.52v1.67c-.07-.01-.14-.02-.21-.02h-.19c-.92,0-1.66.28-2.2.83-.54.55-.81,1.35-.81,2.39v4.75h-1.73Z"/>
    <path class="cls-2" d="m262.34,248.84c.78,0,1.47.15,2.06.45.59.3,1.06.76,1.4,1.37s.5,1.39.5,2.32v5.49h-1.73v-5.29c0-.92-.22-1.62-.67-2.09-.45-.47-1.08-.7-1.9-.7-.61,0-1.15.12-1.6.36-.46.24-.81.59-1.05,1.06-.25.47-.37,1.05-.37,1.75v4.91h-1.73v-9.54h1.66v2.57l-.27-.68c.31-.62.79-1.11,1.44-1.46.65-.35,1.4-.52,2.27-.52Z"/>
  </g>
  <g>
    <path class="cls-2" d="m119.69,485.96c-1.56,0-2.79-.46-3.69-1.37s-1.35-2.27-1.35-4.07v-7.25h.92v7.22c0,1.57.36,2.74,1.08,3.49.72.76,1.74,1.13,3.06,1.13s2.32-.38,3.04-1.13c.72-.76,1.08-1.92,1.08-3.49v-7.22h.92v7.25c0,1.8-.45,3.16-1.35,4.07s-2.14,1.37-3.71,1.37Z"/>
    <path class="cls-2" d="m131.12,485.94c-.78,0-1.51-.11-2.19-.34-.68-.23-1.2-.52-1.58-.86l.41-.72c.36.31.84.58,1.44.8.6.22,1.25.33,1.94.33.98,0,1.69-.16,2.12-.49.43-.32.65-.75.65-1.28,0-.38-.11-.69-.33-.91-.22-.22-.52-.39-.89-.51-.37-.12-.78-.22-1.22-.3-.44-.08-.89-.16-1.33-.26-.44-.1-.85-.23-1.22-.41-.37-.18-.67-.43-.89-.75s-.33-.74-.33-1.27c0-.48.13-.91.4-1.29.26-.38.66-.69,1.19-.93.53-.23,1.19-.35,1.98-.35.59,0,1.18.08,1.77.25.59.17,1.08.39,1.45.67l-.41.72c-.4-.3-.84-.52-1.33-.65-.49-.13-.99-.2-1.49-.2-.91,0-1.58.17-2.01.5s-.64.76-.64,1.26c0,.4.11.71.33.95.22.23.52.41.89.54s.78.23,1.22.31.89.17,1.33.26c.44.1.85.23,1.22.4.37.17.67.41.89.72.22.3.33.72.33,1.23s-.14.97-.42,1.35c-.28.38-.7.68-1.25.9s-1.23.32-2.03.32Z"/>
    <path class="cls-2" d="m141.16,485.94c-.95,0-1.79-.2-2.51-.61-.73-.41-1.3-.97-1.71-1.69-.41-.72-.62-1.54-.62-2.47s.2-1.76.58-2.47c.39-.71.93-1.27,1.61-1.68s1.45-.61,2.3-.61,1.62.2,2.29.59c.68.4,1.21.95,1.6,1.67s.58,1.54.58,2.47c0,.04,0,.08,0,.12,0,.04,0,.09,0,.13h-8.3v-.7h7.81l-.36.34c.01-.73-.14-1.39-.46-1.97s-.75-1.04-1.29-1.37c-.54-.33-1.16-.49-1.87-.49s-1.32.17-1.86.49c-.55.33-.98.79-1.29,1.37s-.47,1.24-.47,1.99v.16c0,.77.17,1.45.51,2.04.34.59.81,1.06,1.41,1.39s1.28.49,2.05.49c.6,0,1.16-.11,1.68-.32.52-.21.96-.54,1.32-.99l.52.59c-.41.5-.92.89-1.54,1.14s-1.29.39-2.01.39Z"/>
    <path class="cls-2" d="m147.3,481.44v-.81h4.63v.81h-4.63Z"/>
    <path class="cls-2" d="m158.68,485.94c-.91,0-1.73-.2-2.44-.61-.71-.41-1.28-.97-1.69-1.69-.41-.72-.62-1.54-.62-2.47s.21-1.76.62-2.48c.41-.72.98-1.28,1.69-1.68s1.53-.6,2.44-.6c.76,0,1.44.14,2.06.43s1.12.72,1.5,1.3l-.67.49c-.34-.48-.76-.83-1.26-1.06-.5-.23-1.05-.34-1.64-.34-.73,0-1.39.17-1.97.5-.58.33-1.04.79-1.37,1.39s-.5,1.29-.5,2.08.17,1.49.5,2.08.79,1.06,1.37,1.39,1.24.49,1.97.49c.59,0,1.13-.11,1.64-.34.5-.23.92-.58,1.26-1.06l.67.49c-.38.58-.89,1.01-1.5,1.3-.62.29-1.3.43-2.06.43Z"/>
    <path class="cls-2" d="m167.48,485.94c-.7,0-1.3-.11-1.81-.33-.51-.22-.9-.54-1.17-.94-.27-.41-.4-.88-.4-1.4,0-.48.11-.92.33-1.31.22-.39.59-.71,1.11-.95.52-.25,1.21-.37,2.07-.37h3.46v.7h-3.44c-.97,0-1.65.18-2.04.54s-.58.81-.58,1.35c0,.6.23,1.08.68,1.44s1.1.54,1.93.54,1.46-.18,2.01-.54c.55-.36.95-.88,1.21-1.57l.25.61c-.25.68-.68,1.23-1.29,1.63s-1.38.6-2.31.6Zm3.38-.07v-2.14l-.04-.32v-3.53c0-.88-.24-1.54-.71-2-.47-.46-1.17-.68-2.08-.68-.65,0-1.25.11-1.81.33-.56.22-1.03.51-1.43.85l-.45-.65c.47-.42,1.03-.75,1.69-.98s1.35-.35,2.07-.35c1.16,0,2.06.29,2.68.88s.94,1.46.94,2.63v5.96h-.86Z"/>
    <path class="cls-2" d="m177.81,485.94c-.78,0-1.51-.11-2.19-.34-.68-.23-1.2-.52-1.58-.86l.41-.72c.36.31.84.58,1.44.8.6.22,1.25.33,1.94.33.98,0,1.69-.16,2.12-.49.43-.32.65-.75.65-1.28,0-.38-.11-.69-.33-.91-.22-.22-.52-.39-.89-.51-.37-.12-.78-.22-1.22-.3-.44-.08-.89-.16-1.33-.26-.44-.1-.85-.23-1.22-.41-.37-.18-.67-.43-.89-.75s-.33-.74-.33-1.27c0-.48.13-.91.4-1.29.26-.38.66-.69,1.19-.93.53-.23,1.19-.35,1.98-.35.59,0,1.18.08,1.77.25.59.17,1.08.39,1.45.67l-.41.72c-.4-.3-.84-.52-1.33-.65-.49-.13-.99-.2-1.49-.2-.91,0-1.58.17-2.01.5s-.64.76-.64,1.26c0,.4.11.71.33.95.22.23.52.41.89.54s.78.23,1.22.31.89.17,1.33.26c.44.1.85.23,1.22.4.37.17.67.41.89.72.22.3.33.72.33,1.23s-.14.97-.42,1.35c-.28.38-.7.68-1.25.9s-1.23.32-2.03.32Z"/>
    <path class="cls-2" d="m187.85,485.94c-.95,0-1.79-.2-2.51-.61-.73-.41-1.3-.97-1.71-1.69-.41-.72-.62-1.54-.62-2.47s.2-1.76.58-2.47c.39-.71.93-1.27,1.61-1.68s1.45-.61,2.3-.61,1.62.2,2.29.59c.68.4,1.21.95,1.6,1.67s.58,1.54.58,2.47c0,.04,0,.08,0,.12,0,.04,0,.09,0,.13h-8.3v-.7h7.81l-.36.34c.01-.73-.14-1.39-.46-1.97s-.75-1.04-1.29-1.37c-.54-.33-1.16-.49-1.87-.49s-1.32.17-1.86.49c-.55.33-.98.79-1.29,1.37s-.47,1.24-.47,1.99v.16c0,.77.17,1.45.51,2.04.34.59.81,1.06,1.41,1.39s1.28.49,2.05.49c.6,0,1.16-.11,1.68-.32.52-.21.96-.54,1.32-.99l.52.59c-.41.5-.92.89-1.54,1.14s-1.29.39-2.01.39Z"/>
    <path class="cls-2" d="m197.16,485.94c-.78,0-1.51-.11-2.19-.34-.68-.23-1.2-.52-1.58-.86l.41-.72c.36.31.84.58,1.44.8.6.22,1.25.33,1.94.33.98,0,1.69-.16,2.12-.49.43-.32.65-.75.65-1.28,0-.38-.11-.69-.33-.91-.22-.22-.52-.39-.89-.51-.37-.12-.78-.22-1.22-.3-.44-.08-.89-.16-1.33-.26-.44-.1-.85-.23-1.22-.41-.37-.18-.67-.43-.89-.75s-.33-.74-.33-1.27c0-.48.13-.91.4-1.29.26-.38.66-.69,1.19-.93.53-.23,1.19-.35,1.98-.35.59,0,1.18.08,1.77.25.59.17,1.08.39,1.45.67l-.41.72c-.4-.3-.84-.52-1.33-.65-.49-.13-.99-.2-1.49-.2-.91,0-1.58.17-2.01.5s-.64.76-.64,1.26c0,.4.11.71.33.95.22.23.52.41.89.54s.78.23,1.22.31.89.17,1.33.26c.44.1.85.23,1.22.4.37.17.67.41.89.72.22.3.33.72.33,1.23s-.14.97-.42,1.35c-.28.38-.7.68-1.25.9s-1.23.32-2.03.32Z"/>
    <path class="cls-2" d="m205.69,487.67l5.94-16.96h.83l-5.94,16.96h-.83Z"/>
    <path class="cls-2" d="m230.1,476.4c.76,0,1.41.15,1.97.44.56.29.99.74,1.3,1.33s.47,1.33.47,2.21v5.49h-.9v-5.42c0-1.06-.26-1.86-.77-2.41-.52-.55-1.24-.83-2.16-.83-.71,0-1.32.15-1.84.45-.52.3-.91.72-1.19,1.26s-.41,1.19-.41,1.94v5h-.9v-5.42c0-1.06-.26-1.86-.77-2.41-.52-.55-1.24-.83-2.16-.83-.71,0-1.32.15-1.84.45-.52.3-.91.72-1.19,1.26-.28.54-.41,1.19-.41,1.94v5h-.9v-9.4h.86v2.59l-.13-.29c.28-.73.74-1.31,1.39-1.74.65-.43,1.43-.64,2.34-.64s1.72.24,2.37.71,1.05,1.18,1.22,2.11l-.31-.12c.25-.8.73-1.46,1.42-1.95.7-.5,1.54-.75,2.54-.75Z"/>
    <path class="cls-2" d="m238,474.19c-.21,0-.38-.07-.52-.22-.14-.14-.22-.31-.22-.5,0-.2.07-.38.22-.52s.32-.22.52-.22c.22,0,.39.07.53.21.14.14.21.31.21.51s-.07.38-.21.52c-.14.14-.32.22-.53.22Zm-.45,11.68v-9.4h.9v9.4h-.9Z"/>
    <path class="cls-2" d="m244.62,485.94c-.78,0-1.51-.11-2.19-.34-.68-.23-1.2-.52-1.58-.86l.41-.72c.36.31.84.58,1.44.8.6.22,1.25.33,1.94.33.98,0,1.69-.16,2.12-.49.43-.32.65-.75.65-1.28,0-.38-.11-.69-.33-.91-.22-.22-.52-.39-.89-.51-.37-.12-.78-.22-1.22-.3s-.89-.16-1.33-.26-.85-.23-1.22-.41c-.37-.18-.67-.43-.89-.75s-.33-.74-.33-1.27c0-.48.13-.91.4-1.29.26-.38.66-.69,1.19-.93.53-.23,1.19-.35,1.98-.35.59,0,1.18.08,1.77.25.59.17,1.08.39,1.45.67l-.41.72c-.4-.3-.84-.52-1.33-.65-.49-.13-.99-.2-1.49-.2-.91,0-1.58.17-2.01.5s-.64.76-.64,1.26c0,.4.11.71.33.95s.52.41.89.54.78.23,1.22.31c.44.08.89.17,1.33.26.44.1.85.23,1.22.4.37.17.67.41.89.72.22.3.33.72.33,1.23s-.14.97-.42,1.35c-.28.38-.7.68-1.25.9s-1.23.32-2.03.32Z"/>
    <path class="cls-2" d="m253.23,485.94c-.78,0-1.51-.11-2.19-.34-.68-.23-1.2-.52-1.58-.86l.41-.72c.36.31.84.58,1.44.8.6.22,1.25.33,1.94.33.98,0,1.69-.16,2.12-.49.43-.32.65-.75.65-1.28,0-.38-.11-.69-.33-.91-.22-.22-.52-.39-.89-.51-.37-.12-.78-.22-1.22-.3s-.89-.16-1.33-.26-.85-.23-1.22-.41c-.37-.18-.67-.43-.89-.75s-.33-.74-.33-1.27c0-.48.13-.91.4-1.29.26-.38.66-.69,1.19-.93.53-.23,1.19-.35,1.98-.35.59,0,1.18.08,1.77.25.59.17,1.08.39,1.45.67l-.41.72c-.4-.3-.84-.52-1.33-.65-.49-.13-.99-.2-1.49-.2-.91,0-1.58.17-2.01.5s-.64.76-.64,1.26c0,.4.11.71.33.95s.52.41.89.54.78.23,1.22.31c.44.08.89.17,1.33.26.44.1.85.23,1.22.4.37.17.67.41.89.72.22.3.33.72.33,1.23s-.14.97-.42,1.35c-.28.38-.7.68-1.25.9s-1.23.32-2.03.32Z"/>
    <path class="cls-2" d="m259.91,474.19c-.2,0-.38-.07-.52-.22-.14-.14-.22-.31-.22-.5,0-.2.07-.38.22-.52s.32-.22.52-.22c.22,0,.39.07.53.21.14.14.21.31.21.51s-.07.38-.21.52c-.14.14-.31.22-.53.22Zm-.45,11.68v-9.4h.9v9.4h-.9Z"/>
    <path class="cls-2" d="m267.83,485.94c-.9,0-1.7-.2-2.4-.61-.7-.41-1.26-.97-1.67-1.69-.41-.72-.62-1.54-.62-2.47s.21-1.76.62-2.47.97-1.27,1.67-1.68c.7-.41,1.5-.61,2.4-.61s1.7.2,2.41.61,1.27.97,1.67,1.68.61,1.54.61,2.47-.2,1.75-.61,2.47c-.41.72-.97,1.29-1.67,1.69-.71.41-1.51.61-2.41.61Zm0-.81c.72,0,1.37-.16,1.94-.49.58-.33,1.03-.79,1.35-1.4s.49-1.29.49-2.07-.16-1.49-.49-2.08-.77-1.06-1.35-1.39c-.58-.33-1.22-.5-1.94-.5s-1.37.17-1.93.5c-.57.33-1.02.79-1.35,1.39s-.49,1.29-.49,2.08.16,1.47.49,2.07.78,1.07,1.35,1.4c.57.33,1.21.49,1.93.49Z"/>
    <path class="cls-2" d="m279.9,476.4c.77,0,1.44.15,2.01.44.57.29,1.01.74,1.33,1.33.32.59.48,1.33.48,2.21v5.49h-.9v-5.42c0-1.06-.27-1.86-.8-2.41-.53-.55-1.28-.83-2.24-.83-.73,0-1.37.15-1.91.45-.54.3-.95.72-1.23,1.26s-.42,1.19-.42,1.94v5h-.9v-9.4h.86v2.61l-.13-.29c.29-.74.76-1.33,1.42-1.75.66-.43,1.47-.64,2.43-.64Z"/>
    <path class="cls-2" d="m289.8,485.94c-.78,0-1.51-.11-2.19-.34-.68-.23-1.2-.52-1.57-.86l.41-.72c.36.31.84.58,1.44.8.6.22,1.25.33,1.94.33.98,0,1.69-.16,2.12-.49.43-.32.65-.75.65-1.28,0-.38-.11-.69-.33-.91-.22-.22-.52-.39-.89-.51-.37-.12-.78-.22-1.22-.3-.44-.08-.89-.16-1.33-.26-.44-.1-.85-.23-1.22-.41-.37-.18-.67-.43-.89-.75-.22-.32-.33-.74-.33-1.27,0-.48.13-.91.4-1.29.26-.38.66-.69,1.19-.93.53-.23,1.19-.35,1.98-.35.59,0,1.18.08,1.77.25.59.17,1.08.39,1.45.67l-.41.72c-.4-.3-.84-.52-1.33-.65-.49-.13-.99-.2-1.49-.2-.91,0-1.58.17-2.01.5s-.64.76-.64,1.26c0,.4.11.71.33.95.22.23.52.41.89.54.37.13.78.23,1.22.31s.89.17,1.33.26c.44.1.85.23,1.22.4.37.17.67.41.89.72.22.3.33.72.33,1.23s-.14.97-.42,1.35c-.28.38-.7.68-1.25.9-.55.22-1.23.32-2.03.32Z"/>
  </g>
  <g>
    <path class="cls-2" d="m55.87,13.52c-.94,0-1.8-.16-2.6-.48-.8-.32-1.49-.76-2.08-1.34-.59-.58-1.04-1.25-1.37-2.02-.32-.77-.49-1.62-.49-2.55s.16-1.77.49-2.55c.32-.77.78-1.45,1.38-2.02.59-.58,1.29-1.02,2.08-1.34s1.66-.48,2.59-.48,1.72.14,2.49.43c.77.29,1.44.73,1.99,1.31l-.58.59c-.54-.53-1.14-.91-1.79-1.14-.65-.23-1.35-.35-2.08-.35-.8,0-1.55.14-2.24.41-.69.28-1.29.67-1.8,1.17-.51.5-.91,1.09-1.19,1.76-.28.67-.42,1.4-.42,2.2s.14,1.52.42,2.2c.28.67.68,1.26,1.19,1.76.51.5,1.11.89,1.8,1.17s1.44.41,2.24.41c.73,0,1.42-.12,2.08-.35.65-.23,1.25-.62,1.79-1.16l.58.59c-.55.59-1.21,1.03-1.99,1.32-.77.29-1.6.44-2.49.44Z"/>
    <path class="cls-2" d="m66.81,13.5c-.9,0-1.7-.2-2.4-.61-.7-.41-1.26-.97-1.67-1.69-.41-.72-.62-1.54-.62-2.47s.21-1.76.62-2.47.97-1.27,1.67-1.68c.7-.41,1.5-.61,2.4-.61s1.7.2,2.41.61c.71.41,1.27.97,1.67,1.68.41.71.61,1.54.61,2.47s-.2,1.75-.61,2.47c-.41.72-.97,1.28-1.67,1.69-.71.41-1.51.61-2.41.61Zm0-.81c.72,0,1.37-.17,1.94-.5.58-.33,1.03-.79,1.35-1.4s.49-1.29.49-2.07-.16-1.48-.49-2.08c-.32-.59-.77-1.06-1.35-1.39-.58-.33-1.22-.5-1.94-.5s-1.37.17-1.94.5c-.57.33-1.02.79-1.35,1.39-.33.59-.5,1.29-.5,2.08s.17,1.47.5,2.07.78,1.06,1.35,1.4c.57.33,1.21.5,1.94.5Z"/>
    <path class="cls-2" d="m86,3.96c.76,0,1.41.15,1.97.44s.99.74,1.3,1.33c.31.59.47,1.33.47,2.2v5.49h-.9v-5.42c0-1.06-.26-1.86-.77-2.41-.52-.55-1.24-.83-2.16-.83-.71,0-1.32.15-1.84.45-.52.3-.91.72-1.19,1.26-.28.54-.41,1.19-.41,1.94v5h-.9v-5.42c0-1.06-.26-1.86-.77-2.41-.52-.55-1.24-.83-2.16-.83-.71,0-1.32.15-1.84.45-.52.3-.91.72-1.19,1.26-.28.54-.41,1.19-.41,1.94v5h-.9V4.03h.86v2.59l-.13-.29c.28-.73.74-1.31,1.39-1.74.65-.43,1.43-.64,2.34-.64s1.72.24,2.37.71,1.05,1.18,1.22,2.11l-.31-.13c.25-.8.73-1.46,1.42-1.95.7-.5,1.54-.75,2.54-.75Z"/>
    <path class="cls-2" d="m105.15,3.96c.76,0,1.41.15,1.97.44s.99.74,1.3,1.33c.31.59.47,1.33.47,2.2v5.49h-.9v-5.42c0-1.06-.26-1.86-.77-2.41-.52-.55-1.24-.83-2.16-.83-.71,0-1.32.15-1.84.45-.52.3-.91.72-1.19,1.26-.28.54-.41,1.19-.41,1.94v5h-.9v-5.42c0-1.06-.26-1.86-.77-2.41-.52-.55-1.24-.83-2.16-.83-.71,0-1.32.15-1.84.45-.52.3-.91.72-1.19,1.26-.28.54-.41,1.19-.41,1.94v5h-.9V4.03h.86v2.59l-.13-.29c.28-.73.74-1.31,1.39-1.74.65-.43,1.43-.64,2.34-.64s1.72.24,2.37.71,1.05,1.18,1.22,2.11l-.31-.13c.25-.8.73-1.46,1.42-1.95.7-.5,1.54-.75,2.54-.75Z"/>
    <path class="cls-2" d="m116.28,13.5c-.9,0-1.7-.2-2.4-.61-.7-.41-1.26-.97-1.67-1.69-.41-.72-.62-1.54-.62-2.47s.21-1.76.62-2.47.97-1.27,1.67-1.68c.7-.41,1.5-.61,2.4-.61s1.7.2,2.41.61c.71.41,1.27.97,1.67,1.68.41.71.61,1.54.61,2.47s-.2,1.75-.61,2.47c-.41.72-.97,1.28-1.67,1.69-.71.41-1.51.61-2.41.61Zm0-.81c.72,0,1.37-.17,1.94-.5.58-.33,1.03-.79,1.35-1.4s.49-1.29.49-2.07-.16-1.48-.49-2.08c-.32-.59-.77-1.06-1.35-1.39-.58-.33-1.22-.5-1.94-.5s-1.37.17-1.94.5c-.57.33-1.02.79-1.35,1.39-.33.59-.5,1.29-.5,2.08s.17,1.47.5,2.07.78,1.06,1.35,1.4c.57.33,1.21.5,1.94.5Z"/>
    <path class="cls-2" d="m128.35,3.96c.77,0,1.44.15,2.01.44s1.01.74,1.33,1.33c.32.59.48,1.33.48,2.2v5.49h-.9v-5.42c0-1.06-.27-1.86-.8-2.41-.53-.55-1.28-.83-2.24-.83-.73,0-1.37.15-1.91.45-.54.3-.95.72-1.23,1.26-.28.54-.42,1.19-.42,1.94v5h-.9V4.03h.86v2.61l-.13-.29c.29-.74.76-1.33,1.42-1.75.66-.43,1.47-.64,2.43-.64Z"/>
    <path class="cls-2" d="m142.88,13.5c-.78,0-1.51-.11-2.19-.34-.68-.23-1.2-.52-1.58-.86l.41-.72c.36.31.84.58,1.44.8.6.22,1.25.33,1.94.33.98,0,1.69-.16,2.12-.49.43-.32.65-.75.65-1.28,0-.38-.11-.69-.33-.91-.22-.22-.52-.39-.89-.51-.37-.12-.78-.22-1.22-.3-.44-.08-.89-.16-1.33-.26-.44-.1-.85-.23-1.22-.41-.37-.18-.67-.43-.89-.75s-.33-.74-.33-1.27c0-.48.13-.91.4-1.3.26-.38.66-.69,1.19-.93.53-.23,1.19-.35,1.98-.35.59,0,1.18.08,1.77.25.59.17,1.08.39,1.45.67l-.41.72c-.4-.3-.84-.52-1.33-.65-.49-.13-.99-.2-1.49-.2-.91,0-1.58.17-2.01.5s-.64.76-.64,1.26c0,.4.11.71.33.95.22.23.52.41.89.54.37.13.78.23,1.22.31.44.08.89.17,1.33.26s.85.23,1.22.4c.37.17.67.41.89.72.22.31.33.72.33,1.23s-.14.97-.42,1.35-.7.68-1.25.9-1.23.32-2.03.32Z"/>
    <path class="cls-2" d="m147.56,4.81v-.77h5.62v.77h-5.62Zm4.28,8.69c-.83,0-1.46-.23-1.9-.68-.44-.46-.66-1.08-.66-1.87V1.98h.9v8.87c0,.6.15,1.06.45,1.39.3.32.73.49,1.3.49s1.07-.17,1.46-.52l.38.63c-.24.23-.53.4-.87.5-.34.11-.69.16-1.05.16Z"/>
    <path class="cls-2" d="m158.81,13.5c-.7,0-1.3-.11-1.81-.33-.51-.22-.9-.54-1.17-.94-.27-.41-.4-.88-.4-1.4,0-.48.11-.92.33-1.31.22-.39.59-.71,1.11-.95.52-.25,1.21-.37,2.07-.37h3.46v.7h-3.44c-.97,0-1.65.18-2.04.54s-.58.81-.58,1.35c0,.6.23,1.08.68,1.44s1.1.54,1.93.54,1.46-.18,2.01-.54c.55-.36.95-.88,1.21-1.57l.25.61c-.25.68-.68,1.23-1.29,1.63-.61.4-1.38.6-2.31.6Zm3.38-.07v-2.14l-.04-.32v-3.53c0-.88-.24-1.54-.71-2-.47-.46-1.17-.68-2.08-.68-.65,0-1.25.11-1.81.33-.56.22-1.03.51-1.43.85l-.45-.65c.47-.42,1.03-.75,1.69-.98.66-.23,1.35-.35,2.07-.35,1.16,0,2.06.29,2.68.88s.94,1.46.94,2.63v5.96h-.86Z"/>
    <path class="cls-2" d="m171.36,3.96c.77,0,1.44.15,2.01.44s1.01.74,1.33,1.33c.32.59.48,1.33.48,2.2v5.49h-.9v-5.42c0-1.06-.27-1.86-.8-2.41-.53-.55-1.28-.83-2.24-.83-.73,0-1.37.15-1.91.45-.54.3-.95.72-1.23,1.26-.28.54-.42,1.19-.42,1.94v5h-.9V4.03h.86v2.61l-.13-.29c.29-.74.76-1.33,1.42-1.75.66-.43,1.47-.64,2.43-.64Z"/>
    <path class="cls-2" d="m182.5,13.5c-.88,0-1.67-.2-2.37-.6-.7-.4-1.26-.96-1.67-1.68-.41-.72-.61-1.55-.61-2.48s.2-1.78.61-2.49c.41-.71.96-1.27,1.67-1.67.7-.4,1.49-.6,2.37-.6.83,0,1.58.19,2.24.58.67.38,1.19.93,1.58,1.64.39.71.58,1.56.58,2.56s-.19,1.82-.58,2.54c-.38.72-.91,1.27-1.57,1.66-.67.38-1.42.58-2.26.58Zm.05-.81c.72,0,1.36-.17,1.94-.5.57-.33,1.02-.79,1.35-1.4.33-.6.49-1.29.49-2.07s-.17-1.48-.49-2.08c-.33-.59-.78-1.06-1.35-1.39-.57-.33-1.22-.5-1.94-.5s-1.37.17-1.94.5c-.57.33-1.02.79-1.35,1.39-.33.59-.5,1.29-.5,2.08s.17,1.47.5,2.07.78,1.06,1.35,1.4c.57.33,1.21.5,1.94.5Zm3.8.74v-3.08l.16-1.64-.18-1.64V.07h.9v13.36h-.88Z"/>
    <path class="cls-2" d="m193.57,13.5c-.7,0-1.3-.11-1.81-.33-.51-.22-.9-.54-1.17-.94-.27-.41-.4-.88-.4-1.4,0-.48.11-.92.33-1.31.22-.39.59-.71,1.11-.95.52-.25,1.21-.37,2.07-.37h3.46v.7h-3.44c-.97,0-1.65.18-2.04.54s-.58.81-.58,1.35c0,.6.23,1.08.68,1.44s1.1.54,1.93.54,1.46-.18,2.01-.54c.55-.36.95-.88,1.21-1.57l.25.61c-.25.68-.68,1.23-1.29,1.63-.61.4-1.38.6-2.31.6Zm3.38-.07v-2.14l-.04-.32v-3.53c0-.88-.24-1.54-.71-2-.47-.46-1.17-.68-2.08-.68-.65,0-1.25.11-1.81.33-.56.22-1.03.51-1.43.85l-.45-.65c.47-.42,1.03-.75,1.69-.98.66-.23,1.35-.35,2.07-.35,1.16,0,2.06.29,2.68.88s.94,1.46.94,2.63v5.96h-.86Z"/>
    <path class="cls-2" d="m201.52,13.43V4.03h.86v2.57l-.09-.29c.26-.76.71-1.34,1.33-1.75.62-.41,1.4-.61,2.34-.61v.88s-.07,0-.11,0c-.04,0-.07,0-.11,0-1.04,0-1.86.33-2.45.98-.59.65-.88,1.56-.88,2.73v4.9h-.9Z"/>
    <path class="cls-2" d="m212.23,13.5c-.88,0-1.67-.2-2.37-.6-.7-.4-1.26-.96-1.67-1.68-.41-.72-.61-1.55-.61-2.48s.2-1.78.61-2.49c.41-.71.96-1.27,1.67-1.67.7-.4,1.49-.6,2.37-.6.83,0,1.58.19,2.24.58.67.38,1.19.93,1.58,1.64.39.71.58,1.56.58,2.56s-.19,1.82-.58,2.54c-.38.72-.91,1.27-1.57,1.66-.67.38-1.42.58-2.26.58Zm.05-.81c.72,0,1.36-.17,1.94-.5.57-.33,1.02-.79,1.35-1.4.33-.6.49-1.29.49-2.07s-.17-1.48-.49-2.08c-.33-.59-.78-1.06-1.35-1.39-.57-.33-1.22-.5-1.94-.5s-1.37.17-1.94.5c-.57.33-1.02.79-1.35,1.39-.33.59-.5,1.29-.5,2.08s.17,1.47.5,2.07.78,1.06,1.35,1.4c.57.33,1.21.5,1.94.5Zm3.8.74v-3.08l.16-1.64-.18-1.64V.07h.9v13.36h-.88Z"/>
    <path class="cls-2" d="m223.14,13.5c-.78,0-1.51-.11-2.19-.34-.68-.23-1.2-.52-1.58-.86l.41-.72c.36.31.84.58,1.44.8.6.22,1.25.33,1.94.33.98,0,1.69-.16,2.12-.49.43-.32.65-.75.65-1.28,0-.38-.11-.69-.33-.91-.22-.22-.52-.39-.89-.51-.37-.12-.78-.22-1.22-.3-.44-.08-.89-.16-1.33-.26-.44-.1-.85-.23-1.22-.41-.37-.18-.67-.43-.89-.75s-.33-.74-.33-1.27c0-.48.13-.91.4-1.3.26-.38.66-.69,1.19-.93.53-.23,1.19-.35,1.98-.35.59,0,1.18.08,1.77.25.59.17,1.08.39,1.45.67l-.41.72c-.4-.3-.84-.52-1.33-.65-.49-.13-.99-.2-1.49-.2-.91,0-1.58.17-2.01.5s-.64.76-.64,1.26c0,.4.11.71.33.95.22.23.52.41.89.54.37.13.78.23,1.22.31.44.08.89.17,1.33.26s.85.23,1.22.4c.37.17.67.41.89.72.22.31.33.72.33,1.23s-.14.97-.42,1.35-.7.68-1.25.9-1.23.32-2.03.32Z"/>
    <path class="cls-2" d="m228.5,16l.7-3.04.09.52c-.23,0-.42-.07-.57-.22-.15-.14-.23-.32-.23-.54s.08-.4.23-.54c.15-.14.33-.22.53-.22.23,0,.41.08.55.23.14.15.21.33.21.53,0,.08,0,.17-.02.25-.01.08-.03.17-.05.25-.02.08-.05.19-.09.32l-.7,2.45h-.65Z"/>
    <path class="cls-2" d="m238.04,1.75c-.2,0-.38-.07-.52-.22-.14-.14-.22-.31-.22-.5,0-.2.07-.38.22-.52.14-.14.32-.22.52-.22.22,0,.39.07.53.21.14.14.21.31.21.51s-.07.38-.21.52-.31.22-.53.22Zm-.45,11.68V4.03h.9v9.4h-.9Z"/>
    <path class="cls-2" d="m246.88,3.96c.77,0,1.44.15,2.01.44.57.29,1.01.74,1.33,1.33.32.59.48,1.33.48,2.2v5.49h-.9v-5.42c0-1.06-.27-1.86-.8-2.41-.53-.55-1.28-.83-2.24-.83-.73,0-1.37.15-1.91.45-.54.3-.95.72-1.23,1.26-.28.54-.42,1.19-.42,1.94v5h-.9V4.03h.86v2.61l-.13-.29c.29-.74.76-1.33,1.42-1.75.66-.43,1.47-.64,2.43-.64Z"/>
    <path class="cls-2" d="m252.86,4.81v-.77h5.62v.77h-5.62Zm1.73,8.62V2.59c0-.78.22-1.41.67-1.88s1.09-.71,1.94-.71c.35,0,.69.05,1.03.15s.61.25.83.46l-.36.68c-.18-.18-.4-.31-.65-.4s-.52-.13-.81-.13c-.58,0-1.01.16-1.31.48s-.45.79-.45,1.41v1.58l.02.43v8.75h-.9Z"/>
    <path class="cls-2" d="m260.31,13.43V4.03h.86v2.57l-.09-.29c.26-.76.71-1.34,1.33-1.75.62-.41,1.4-.61,2.34-.61v.88s-.07,0-.11,0c-.04,0-.07,0-.11,0-1.04,0-1.86.33-2.45.98-.59.65-.88,1.56-.88,2.73v4.9h-.9Z"/>
    <path class="cls-2" d="m269.94,13.5c-.7,0-1.3-.11-1.81-.33-.51-.22-.9-.54-1.17-.94-.27-.41-.4-.88-.4-1.4,0-.48.11-.92.33-1.31.22-.39.59-.71,1.11-.95.52-.25,1.21-.37,2.07-.37h3.46v.7h-3.44c-.97,0-1.65.18-2.04.54-.39.36-.58.81-.58,1.35,0,.6.23,1.08.68,1.44s1.1.54,1.93.54,1.46-.18,2.01-.54.95-.88,1.21-1.57l.25.61c-.25.68-.68,1.23-1.29,1.63-.61.4-1.38.6-2.31.6Zm3.38-.07v-2.14l-.04-.32v-3.53c0-.88-.24-1.54-.71-2-.47-.46-1.17-.68-2.08-.68-.65,0-1.25.11-1.81.33s-1.04.51-1.43.85l-.45-.65c.47-.42,1.03-.75,1.69-.98.66-.23,1.35-.35,2.07-.35,1.16,0,2.06.29,2.68.88s.94,1.46.94,2.63v5.96h-.86Z"/>
    <path class="cls-2" d="m280.27,13.5c-.78,0-1.51-.11-2.19-.34s-1.2-.52-1.58-.86l.41-.72c.36.31.84.58,1.44.8.6.22,1.25.33,1.94.33.98,0,1.69-.16,2.12-.49.43-.32.65-.75.65-1.28,0-.38-.11-.69-.33-.91-.22-.22-.52-.39-.89-.51-.37-.12-.78-.22-1.22-.3-.44-.08-.89-.16-1.33-.26s-.85-.23-1.22-.41c-.37-.18-.67-.43-.89-.75-.22-.32-.33-.74-.33-1.27,0-.48.13-.91.4-1.3.26-.38.66-.69,1.19-.93.53-.23,1.19-.35,1.98-.35.59,0,1.18.08,1.77.25.59.17,1.08.39,1.45.67l-.41.72c-.4-.3-.84-.52-1.33-.65-.49-.13-.99-.2-1.49-.2-.91,0-1.58.17-2.01.5s-.64.76-.64,1.26c0,.4.11.71.33.95.22.23.52.41.89.54.37.13.78.23,1.22.31.44.08.89.17,1.33.26.44.1.85.23,1.22.4.37.17.67.41.89.72.22.31.33.72.33,1.23s-.14.97-.42,1.35c-.28.38-.7.68-1.25.9s-1.23.32-2.03.32Z"/>
    <path class="cls-2" d="m284.95,4.81v-.77h5.62v.77h-5.62Zm4.28,8.69c-.83,0-1.46-.23-1.9-.68s-.66-1.08-.66-1.87V1.98h.9v8.87c0,.6.15,1.06.45,1.39.3.32.73.49,1.3.49s1.07-.17,1.46-.52l.38.63c-.24.23-.53.4-.87.5-.34.11-.69.16-1.05.16Z"/>
    <path class="cls-2" d="m293.66,13.43V4.03h.86v2.57l-.09-.29c.26-.76.71-1.34,1.33-1.75.62-.41,1.4-.61,2.34-.61v.88s-.07,0-.11,0c-.04,0-.07,0-.11,0-1.04,0-1.86.33-2.45.98-.59.65-.88,1.56-.88,2.73v4.9h-.9Z"/>
    <path class="cls-2" d="m304.57,13.5c-.8,0-1.5-.15-2.09-.44-.59-.29-1.04-.74-1.36-1.33-.32-.59-.48-1.33-.48-2.2v-5.49h.9v5.42c0,1.06.27,1.86.81,2.41.54.55,1.3.83,2.29.83.71,0,1.32-.15,1.84-.45.52-.3.91-.72,1.19-1.27.28-.55.41-1.19.41-1.94v-5h.9v9.4h-.86v-2.61l.13.31c-.28.73-.74,1.31-1.38,1.74-.64.43-1.41.64-2.29.64Z"/>
    <path class="cls-2" d="m316.52,13.5c-.91,0-1.72-.2-2.44-.61-.71-.41-1.28-.97-1.69-1.69-.41-.72-.62-1.54-.62-2.47s.21-1.76.62-2.48c.41-.72.98-1.28,1.69-1.68.71-.4,1.53-.6,2.44-.6.76,0,1.44.14,2.06.43s1.12.72,1.5,1.3l-.67.49c-.34-.48-.76-.83-1.26-1.06s-1.05-.34-1.64-.34c-.73,0-1.39.17-1.97.5-.58.33-1.04.79-1.37,1.39-.33.59-.5,1.29-.5,2.08s.17,1.49.5,2.08c.33.59.79,1.06,1.37,1.39s1.24.5,1.97.5c.59,0,1.13-.11,1.64-.34.5-.23.92-.58,1.26-1.06l.67.49c-.38.58-.88,1.01-1.5,1.3s-1.3.43-2.06.43Z"/>
    <path class="cls-2" d="m321.24,4.81v-.77h5.62v.77h-5.62Zm4.28,8.69c-.83,0-1.46-.23-1.9-.68-.44-.46-.66-1.08-.66-1.87V1.98h.9v8.87c0,.6.15,1.06.45,1.39s.73.49,1.3.49,1.07-.17,1.46-.52l.38.63c-.24.23-.53.4-.87.5-.34.11-.69.16-1.05.16Z"/>
    <path class="cls-2" d="m333.77,13.5c-.8,0-1.5-.15-2.09-.44-.59-.29-1.04-.74-1.36-1.33-.32-.59-.48-1.33-.48-2.2v-5.49h.9v5.42c0,1.06.27,1.86.81,2.41.54.55,1.3.83,2.29.83.71,0,1.32-.15,1.84-.45.52-.3.91-.72,1.19-1.27.28-.55.41-1.19.41-1.94v-5h.9v9.4h-.86v-2.61l.13.31c-.28.73-.74,1.31-1.38,1.74s-1.41.64-2.29.64Z"/>
    <path class="cls-2" d="m341.99,13.43V4.03h.86v2.57l-.09-.29c.26-.76.71-1.34,1.33-1.75.62-.41,1.4-.61,2.34-.61v.88s-.07,0-.11,0c-.04,0-.07,0-.11,0-1.04,0-1.86.33-2.45.98-.59.65-.88,1.56-.88,2.73v4.9h-.9Z"/>
    <path class="cls-2" d="m352.9,13.5c-.95,0-1.79-.2-2.51-.61-.73-.41-1.3-.97-1.71-1.69-.41-.72-.62-1.54-.62-2.47s.2-1.76.58-2.47.93-1.27,1.61-1.68c.68-.41,1.45-.61,2.3-.61s1.62.2,2.29.59,1.21.95,1.6,1.67c.39.71.58,1.54.58,2.48,0,.04,0,.08,0,.12,0,.04,0,.09,0,.14h-8.3v-.7h7.81l-.36.34c.01-.73-.14-1.39-.46-1.97-.32-.58-.75-1.04-1.29-1.37-.54-.33-1.16-.49-1.87-.49s-1.32.17-1.86.49c-.55.33-.97.79-1.29,1.37-.31.58-.47,1.25-.47,1.99v.16c0,.77.17,1.45.51,2.04.34.59.81,1.06,1.41,1.39.6.33,1.28.5,2.05.5.6,0,1.16-.11,1.68-.32.52-.22.96-.55,1.32-.99l.52.59c-.41.5-.92.89-1.54,1.14-.62.26-1.29.39-2.01.39Z"/>
    <path class="cls-2" d="m147.43,35.1c-.7,0-1.3-.11-1.81-.33-.51-.22-.9-.54-1.17-.94-.27-.41-.4-.88-.4-1.4,0-.48.11-.92.33-1.31.22-.39.59-.71,1.11-.95.52-.25,1.21-.37,2.07-.37h3.46v.7h-3.44c-.97,0-1.65.18-2.04.54s-.58.81-.58,1.35c0,.6.23,1.08.68,1.44s1.1.54,1.93.54,1.46-.18,2.01-.54c.55-.36.95-.88,1.21-1.57l.25.61c-.25.68-.68,1.23-1.29,1.63-.61.4-1.38.6-2.31.6Zm3.38-.07v-2.14l-.04-.32v-3.53c0-.88-.24-1.54-.71-2-.47-.46-1.17-.68-2.08-.68-.65,0-1.25.11-1.81.33-.56.22-1.03.51-1.43.85l-.45-.65c.47-.42,1.03-.75,1.69-.98.66-.23,1.35-.35,2.07-.35,1.16,0,2.06.29,2.68.88s.94,1.46.94,2.63v5.96h-.86Z"/>
    <path class="cls-2" d="m159.97,25.56c.77,0,1.44.15,2.01.44s1.01.74,1.33,1.33c.32.59.48,1.33.48,2.2v5.49h-.9v-5.42c0-1.06-.27-1.86-.8-2.41-.53-.55-1.28-.83-2.24-.83-.73,0-1.37.15-1.91.45-.54.3-.95.72-1.23,1.26-.28.54-.42,1.19-.42,1.94v5h-.9v-9.4h.86v2.61l-.13-.29c.29-.74.76-1.33,1.42-1.75.66-.43,1.47-.64,2.43-.64Z"/>
    <path class="cls-2" d="m171.11,35.1c-.88,0-1.67-.2-2.37-.6-.7-.4-1.26-.96-1.67-1.68-.41-.72-.61-1.55-.61-2.48s.2-1.78.61-2.49c.41-.71.96-1.27,1.67-1.67.7-.4,1.49-.6,2.37-.6.83,0,1.58.19,2.24.58.67.38,1.19.93,1.58,1.64.39.71.58,1.56.58,2.56s-.19,1.82-.58,2.54c-.38.72-.91,1.27-1.57,1.66-.67.38-1.42.58-2.26.58Zm.05-.81c.72,0,1.36-.17,1.94-.5.57-.33,1.02-.79,1.35-1.4.33-.6.49-1.29.49-2.07s-.17-1.48-.49-2.08c-.33-.59-.78-1.06-1.35-1.39-.57-.33-1.22-.5-1.94-.5s-1.37.17-1.94.5c-.57.33-1.02.79-1.35,1.39-.33.59-.5,1.29-.5,2.08s.17,1.47.5,2.07.78,1.06,1.35,1.4c.57.33,1.21.5,1.94.5Zm3.8.74v-3.08l.16-1.64-.18-1.64v-7h.9v13.36h-.88Z"/>
    <path class="cls-2" d="m184.27,38.52v-12.89h.86v3.08l-.14,1.64.18,1.64v6.53h-.9Zm4.72-3.42c-.83,0-1.58-.19-2.24-.58-.67-.38-1.19-.93-1.58-1.65s-.58-1.56-.58-2.55.19-1.83.58-2.55c.39-.71.92-1.26,1.58-1.65.67-.38,1.41-.58,2.24-.58.89,0,1.68.2,2.38.6.7.4,1.25.96,1.66,1.68.4.72.6,1.55.6,2.48s-.2,1.76-.6,2.48c-.4.72-.95,1.28-1.66,1.68-.7.4-1.5.6-2.38.6Zm-.05-.81c.72,0,1.37-.17,1.94-.5.58-.33,1.03-.79,1.36-1.4s.5-1.29.5-2.07-.17-1.48-.5-2.08c-.33-.59-.78-1.06-1.36-1.39-.58-.33-1.22-.5-1.94-.5s-1.37.17-1.94.5c-.57.33-1.02.79-1.35,1.39-.33.59-.5,1.29-.5,2.08s.16,1.47.5,2.07c.33.6.78,1.06,1.35,1.4s1.22.5,1.94.5Z"/>
    <path class="cls-2" d="m196.42,35.03v-9.4h.86v2.57l-.09-.29c.26-.76.71-1.34,1.33-1.75.62-.41,1.4-.61,2.34-.61v.88s-.07,0-.11,0c-.04,0-.07,0-.11,0-1.04,0-1.86.33-2.45.98-.59.65-.88,1.56-.88,2.73v4.9h-.9Z"/>
    <path class="cls-2" d="m206.05,35.1c-.7,0-1.3-.11-1.81-.33-.51-.22-.9-.54-1.17-.94-.27-.41-.4-.88-.4-1.4,0-.48.11-.92.33-1.31.22-.39.59-.71,1.11-.95.52-.25,1.21-.37,2.07-.37h3.46v.7h-3.44c-.97,0-1.65.18-2.04.54s-.58.81-.58,1.35c0,.6.23,1.08.68,1.44s1.1.54,1.93.54,1.46-.18,2.01-.54c.55-.36.95-.88,1.21-1.57l.25.61c-.25.68-.68,1.23-1.29,1.63-.61.4-1.38.6-2.31.6Zm3.38-.07v-2.14l-.04-.32v-3.53c0-.88-.24-1.54-.71-2-.47-.46-1.17-.68-2.08-.68-.65,0-1.25.11-1.81.33-.56.22-1.03.51-1.43.85l-.45-.65c.47-.42,1.03-.75,1.69-.98.66-.23,1.35-.35,2.07-.35,1.16,0,2.06.29,2.68.88s.94,1.46.94,2.63v5.96h-.86Z"/>
    <path class="cls-2" d="m217.73,35.1c-.91,0-1.73-.2-2.44-.61-.71-.41-1.28-.97-1.69-1.69-.41-.72-.62-1.54-.62-2.47s.21-1.76.62-2.48c.41-.72.98-1.28,1.69-1.68.71-.4,1.53-.6,2.44-.6.76,0,1.44.14,2.06.43s1.12.72,1.5,1.3l-.67.49c-.34-.48-.76-.83-1.26-1.06s-1.05-.34-1.64-.34c-.73,0-1.39.17-1.97.5-.58.33-1.04.79-1.37,1.39-.33.59-.5,1.29-.5,2.08s.17,1.49.5,2.08c.33.59.79,1.06,1.37,1.39s1.24.5,1.97.5c.59,0,1.13-.11,1.64-.34.5-.23.92-.58,1.26-1.06l.67.49c-.38.58-.89,1.01-1.5,1.3s-1.3.43-2.06.43Z"/>
    <path class="cls-2" d="m222.45,26.41v-.77h5.62v.77h-5.62Zm4.28,8.69c-.83,0-1.46-.23-1.9-.68-.44-.46-.66-1.08-.66-1.87v-8.96h.9v8.87c0,.6.15,1.06.45,1.39.3.32.73.49,1.3.49s1.07-.17,1.46-.52l.38.63c-.24.23-.53.4-.87.5-.34.11-.69.16-1.05.16Z"/>
    <path class="cls-2" d="m231.61,23.35c-.2,0-.38-.07-.52-.22-.14-.14-.22-.31-.22-.5,0-.2.07-.38.22-.52.14-.14.32-.22.52-.22.22,0,.39.07.53.21.14.14.21.31.21.51s-.07.38-.21.52c-.14.14-.32.22-.53.22Zm-.45,11.68v-9.4h.9v9.4h-.9Z"/>
    <path class="cls-2" d="m239.58,35.1c-.91,0-1.73-.2-2.44-.61-.71-.41-1.28-.97-1.69-1.69-.41-.72-.62-1.54-.62-2.47s.21-1.76.62-2.48c.41-.72.98-1.28,1.69-1.68.71-.4,1.53-.6,2.44-.6.76,0,1.44.14,2.06.43s1.12.72,1.5,1.3l-.67.49c-.34-.48-.76-.83-1.26-1.06s-1.05-.34-1.64-.34c-.73,0-1.39.17-1.97.5-.58.33-1.04.79-1.37,1.39-.33.59-.5,1.29-.5,2.08s.17,1.49.5,2.08c.33.59.79,1.06,1.37,1.39s1.24.5,1.97.5c.59,0,1.13-.11,1.64-.34.5-.23.92-.58,1.26-1.06l.67.49c-.38.58-.89,1.01-1.5,1.3s-1.3.43-2.06.43Z"/>
    <path class="cls-2" d="m249.66,35.1c-.95,0-1.79-.2-2.51-.61-.73-.41-1.3-.97-1.71-1.69-.41-.72-.62-1.54-.62-2.47s.2-1.76.58-2.47.93-1.27,1.61-1.68c.68-.41,1.45-.61,2.3-.61s1.62.2,2.29.59,1.21.95,1.6,1.67c.39.71.58,1.54.58,2.48,0,.04,0,.08,0,.12,0,.04,0,.09,0,.14h-8.3v-.7h7.81l-.36.34c.01-.73-.14-1.39-.46-1.97-.32-.58-.75-1.04-1.29-1.37-.54-.33-1.16-.49-1.87-.49s-1.32.17-1.86.49c-.55.33-.97.79-1.29,1.37-.31.58-.47,1.25-.47,1.99v.16c0,.77.17,1.45.51,2.04.34.59.81,1.06,1.41,1.39.6.33,1.28.5,2.05.5.6,0,1.16-.11,1.68-.32.52-.22.96-.55,1.32-.99l.52.59c-.41.5-.92.89-1.54,1.14-.62.26-1.29.39-2.01.39Z"/>
    <path class="cls-2" d="m258.97,35.1c-.78,0-1.51-.11-2.19-.34-.68-.23-1.2-.52-1.58-.86l.41-.72c.36.31.84.58,1.44.8.6.22,1.25.33,1.94.33.98,0,1.69-.16,2.12-.49.43-.32.65-.75.65-1.28,0-.38-.11-.69-.33-.91-.22-.22-.52-.39-.89-.51-.37-.12-.78-.22-1.22-.3-.44-.08-.89-.16-1.33-.26-.44-.1-.85-.23-1.22-.41-.37-.18-.67-.43-.89-.75-.22-.32-.33-.74-.33-1.27,0-.48.13-.91.4-1.3.26-.38.66-.69,1.19-.93.53-.23,1.19-.35,1.98-.35.59,0,1.18.08,1.77.25s1.08.39,1.45.67l-.41.72c-.4-.3-.84-.52-1.33-.65-.49-.13-.99-.2-1.49-.2-.91,0-1.58.17-2.01.5s-.64.76-.64,1.26c0,.4.11.71.33.95.22.23.52.41.89.54.37.13.78.23,1.22.31.44.08.89.17,1.33.26.44.1.85.23,1.22.4.37.17.67.41.89.72.22.31.33.72.33,1.23s-.14.97-.42,1.35c-.28.38-.7.68-1.25.9s-1.23.32-2.03.32Z"/>
  </g>
</svg>