<?xml version="1.0" encoding="UTF-8"?>
<svg id="Layer_1" data-name="Layer 1" xmlns="http://www.w3.org/2000/svg" viewBox="0 0 635.11 618.27">
  <defs>
    <style>
      .cls-1 {
        fill: none;
        stroke: #231f20;
        stroke-miterlimit: 10;
        stroke-width: 3px;
      }

      .cls-2 {
        fill: #231f20;
        stroke-width: 0px;
      }
    </style>
  </defs>
  <g>
    <path class="cls-2" d="m2.93,510.92h-1.8v-12.6h8.89v1.57H2.93v11.03Zm-.18-6.64h6.5v1.55H2.75v-1.55Z"/>
    <path class="cls-2" d="m16.4,511.02c-.95,0-1.8-.21-2.55-.63-.75-.42-1.34-1-1.77-1.74-.43-.74-.65-1.58-.65-2.51s.22-1.79.65-2.51c.43-.73,1.02-1.3,1.76-1.72s1.6-.63,2.56-.63,1.8.21,2.55.62,1.34.99,1.76,1.72c.43.73.64,1.57.64,2.52s-.21,1.79-.64,2.52c-.43.73-1.01,1.31-1.76,1.73-.75.42-1.6.63-2.55.63Zm0-1.51c.61,0,1.16-.14,1.65-.41.49-.28.87-.67,1.14-1.18.28-.51.41-1.1.41-1.77s-.14-1.28-.41-1.77c-.28-.5-.66-.88-1.14-1.16-.49-.28-1.04-.41-1.65-.41s-1.16.14-1.64.41c-.48.28-.86.66-1.15,1.16s-.43,1.09-.43,1.77.14,1.26.43,1.77c.29.51.67.9,1.15,1.18.48.28,1.03.41,1.64.41Z"/>
    <path class="cls-2" d="m27.76,511.02c-.82,0-1.53-.15-2.15-.45s-1.1-.76-1.44-1.38-.51-1.4-.51-2.33v-5.49h1.73v5.29c0,.94.23,1.64.68,2.11.45.47,1.08.7,1.9.7.6,0,1.12-.12,1.57-.37.44-.25.79-.61,1.03-1.08.24-.47.36-1.05.36-1.72v-4.93h1.73v9.54h-1.64v-2.57l.27.68c-.31.64-.78,1.13-1.4,1.48-.62.35-1.33.52-2.11.52Z"/>
    <path class="cls-2" d="m41.02,501.29c.78,0,1.47.15,2.06.45.59.3,1.06.76,1.4,1.37.34.61.5,1.39.5,2.32v5.49h-1.73v-5.29c0-.92-.23-1.62-.67-2.09-.45-.47-1.08-.7-1.9-.7-.61,0-1.15.12-1.6.36s-.81.59-1.05,1.06-.37,1.05-.37,1.75v4.91h-1.73v-9.54h1.66v2.57l-.27-.68c.31-.62.79-1.11,1.44-1.46.65-.35,1.4-.52,2.27-.52Z"/>
    <path class="cls-2" d="m52.13,511.02c-.92,0-1.75-.2-2.48-.61s-1.3-.98-1.72-1.71c-.42-.73-.63-1.58-.63-2.56s.21-1.82.63-2.55c.42-.73.99-1.29,1.72-1.7.73-.41,1.55-.61,2.48-.61.8,0,1.53.18,2.18.54.65.36,1.17.9,1.56,1.62.39.72.58,1.62.58,2.7s-.19,1.98-.57,2.7c-.38.72-.89,1.26-1.54,1.63-.65.37-1.39.55-2.21.55Zm.14-1.51c.6,0,1.14-.14,1.63-.41.49-.28.87-.67,1.15-1.18.28-.51.42-1.1.42-1.77s-.14-1.28-.42-1.77-.67-.88-1.15-1.16c-.49-.28-1.03-.41-1.63-.41s-1.16.14-1.64.41c-.48.28-.86.66-1.15,1.16s-.43,1.09-.43,1.77.14,1.26.43,1.77c.29.51.67.9,1.15,1.18.48.28,1.03.41,1.64.41Zm3.26,1.4v-2.57l.11-2.21-.18-2.21v-6.35h1.73v13.36h-1.66Z"/>
    <path class="cls-2" d="m63.25,511.02c-.71,0-1.33-.12-1.86-.36-.53-.24-.94-.57-1.23-1s-.43-.91-.43-1.45.12-.98.37-1.4c.25-.42.65-.76,1.21-1.01s1.31-.38,2.26-.38h3.02v1.24h-2.95c-.86,0-1.45.14-1.75.43-.3.29-.45.64-.45,1.04,0,.47.19.84.56,1.12.37.28.89.42,1.55.42s1.22-.14,1.7-.43.84-.71,1.05-1.26l.34,1.19c-.23.56-.63,1.01-1.21,1.34s-1.3.5-2.18.5Zm3.13-.11v-2.02l-.09-.38v-3.44c0-.73-.21-1.3-.64-1.7-.43-.4-1.06-.6-1.92-.6-.56,0-1.12.09-1.66.28-.54.19-1,.44-1.37.75l-.72-1.3c.49-.4,1.08-.7,1.77-.91.69-.21,1.41-.31,2.17-.31,1.31,0,2.32.32,3.02.95.71.64,1.06,1.61,1.06,2.92v5.76h-1.64Z"/>
    <path class="cls-2" d="m69.86,502.8v-1.42h6.08v1.42h-6.08Zm4.64,8.23c-.96,0-1.7-.26-2.23-.77-.53-.52-.79-1.25-.79-2.21v-8.75h1.73v8.68c0,.52.13.91.39,1.19.26.28.63.41,1.11.41.54,0,.99-.15,1.35-.45l.54,1.24c-.26.23-.58.4-.94.5-.37.11-.75.16-1.14.16Z"/>
    <path class="cls-2" d="m79.54,499.54c-.34,0-.62-.11-.84-.32-.22-.22-.33-.48-.33-.79s.11-.59.33-.81c.22-.22.5-.32.84-.32s.61.11.84.32.33.47.33.78-.11.6-.32.82c-.22.22-.5.33-.85.33Zm-.86,11.38v-9.54h1.73v9.54h-1.73Z"/>
    <path class="cls-2" d="m87.79,511.02c-.95,0-1.8-.21-2.55-.63-.75-.42-1.34-1-1.77-1.74-.43-.74-.65-1.58-.65-2.51s.22-1.79.65-2.51c.43-.73,1.02-1.3,1.76-1.72s1.6-.63,2.56-.63,1.8.21,2.55.62,1.34.99,1.76,1.72c.43.73.64,1.57.64,2.52s-.21,1.79-.64,2.52c-.43.73-1.01,1.31-1.76,1.73-.75.42-1.6.63-2.55.63Zm0-1.51c.61,0,1.16-.14,1.65-.41.49-.28.87-.67,1.14-1.18.28-.51.41-1.1.41-1.77s-.14-1.28-.41-1.77c-.28-.5-.66-.88-1.14-1.16-.49-.28-1.04-.41-1.65-.41s-1.16.14-1.64.41c-.48.28-.86.66-1.15,1.16s-.43,1.09-.43,1.77.14,1.26.43,1.77c.29.51.67.9,1.15,1.18.48.28,1.03.41,1.64.41Z"/>
    <path class="cls-2" d="m100.22,501.29c.78,0,1.47.15,2.06.45.59.3,1.06.76,1.4,1.37.34.61.5,1.39.5,2.32v5.49h-1.73v-5.29c0-.92-.23-1.62-.67-2.09-.45-.47-1.08-.7-1.9-.7-.61,0-1.15.12-1.6.36s-.81.59-1.05,1.06-.37,1.05-.37,1.75v4.91h-1.73v-9.54h1.66v2.57l-.27-.68c.31-.62.79-1.11,1.44-1.46.65-.35,1.4-.52,2.27-.52Z"/>
    <path class="cls-2" d="m110.18,511.02c-.71,0-1.33-.12-1.86-.36-.53-.24-.94-.57-1.23-1s-.43-.91-.43-1.45.12-.98.37-1.4c.25-.42.65-.76,1.21-1.01s1.31-.38,2.26-.38h3.02v1.24h-2.95c-.86,0-1.45.14-1.75.43-.3.29-.45.64-.45,1.04,0,.47.19.84.56,1.12.37.28.89.42,1.55.42s1.22-.14,1.7-.43.84-.71,1.05-1.26l.34,1.19c-.23.56-.63,1.01-1.21,1.34s-1.3.5-2.18.5Zm3.13-.11v-2.02l-.09-.38v-3.44c0-.73-.21-1.3-.64-1.7-.43-.4-1.06-.6-1.92-.6-.56,0-1.12.09-1.66.28-.54.19-1,.44-1.37.75l-.72-1.3c.49-.4,1.08-.7,1.77-.91.69-.21,1.41-.31,2.17-.31,1.31,0,2.32.32,3.02.95.71.64,1.06,1.61,1.06,2.92v5.76h-1.64Z"/>
    <path class="cls-2" d="m118.15,510.92v-13.36h1.73v13.36h-1.73Z"/>
    <path class="cls-2" d="m4.82,532.62c-.92,0-1.75-.2-2.48-.61s-1.3-.98-1.72-1.71c-.42-.73-.63-1.58-.63-2.56s.21-1.82.63-2.55c.42-.73.99-1.29,1.72-1.7.73-.41,1.55-.61,2.48-.61.8,0,1.53.18,2.18.54.65.36,1.17.9,1.56,1.62.39.72.58,1.62.58,2.7s-.19,1.98-.57,2.7c-.38.72-.89,1.26-1.54,1.63-.65.37-1.39.55-2.21.55Zm.14-1.51c.6,0,1.14-.14,1.63-.41.49-.28.87-.67,1.15-1.18.28-.51.42-1.1.42-1.77s-.14-1.28-.42-1.77-.67-.88-1.15-1.16c-.49-.28-1.03-.41-1.63-.41s-1.16.14-1.64.41c-.48.28-.86.66-1.15,1.16s-.43,1.09-.43,1.77.14,1.26.43,1.77c.29.51.67.9,1.15,1.18.48.28,1.03.41,1.64.41Zm3.26,1.4v-2.57l.11-2.21-.18-2.21v-6.35h1.73v13.36h-1.66Z"/>
    <path class="cls-2" d="m15.95,532.62c-.71,0-1.33-.12-1.86-.36-.53-.24-.94-.57-1.23-1s-.43-.91-.43-1.45.12-.98.37-1.4c.25-.42.65-.76,1.21-1.01s1.31-.38,2.26-.38h3.02v1.24h-2.95c-.86,0-1.45.14-1.75.43-.3.29-.45.64-.45,1.04,0,.47.19.84.56,1.12.37.28.89.42,1.55.42s1.22-.14,1.7-.43.84-.71,1.05-1.26l.34,1.19c-.23.56-.63,1.01-1.21,1.34s-1.3.5-2.18.5Zm3.13-.11v-2.02l-.09-.38v-3.44c0-.73-.21-1.3-.64-1.7-.43-.4-1.06-.6-1.92-.6-.56,0-1.12.09-1.66.28-.54.19-1,.44-1.37.75l-.72-1.3c.49-.4,1.08-.7,1.77-.91.69-.21,1.41-.31,2.17-.31,1.31,0,2.32.32,3.02.95.71.64,1.06,1.61,1.06,2.92v5.76h-1.64Z"/>
    <path class="cls-2" d="m22.55,524.4v-1.42h6.08v1.42h-6.08Zm4.64,8.23c-.96,0-1.7-.26-2.23-.77-.53-.52-.79-1.25-.79-2.21v-8.75h1.73v8.68c0,.52.13.91.39,1.19.26.28.63.41,1.11.41.54,0,.99-.15,1.35-.45l.54,1.24c-.26.23-.58.4-.94.5-.37.11-.75.16-1.14.16Z"/>
    <path class="cls-2" d="m34.16,532.62c-.71,0-1.33-.12-1.86-.36-.53-.24-.94-.57-1.23-1s-.43-.91-.43-1.45.12-.98.37-1.4c.25-.42.65-.76,1.21-1.01s1.31-.38,2.26-.38h3.02v1.24h-2.95c-.86,0-1.45.14-1.75.43-.3.29-.45.64-.45,1.04,0,.47.19.84.56,1.12.37.28.89.42,1.55.42s1.22-.14,1.7-.43.84-.71,1.05-1.26l.34,1.19c-.23.56-.63,1.01-1.21,1.34s-1.3.5-2.18.5Zm3.13-.11v-2.02l-.09-.38v-3.44c0-.73-.21-1.3-.64-1.7-.43-.4-1.06-.6-1.92-.6-.56,0-1.12.09-1.66.28-.54.19-1,.44-1.37.75l-.72-1.3c.49-.4,1.08-.7,1.77-.91.69-.21,1.41-.31,2.17-.31,1.31,0,2.32.32,3.02.95.71.64,1.06,1.61,1.06,2.92v5.76h-1.64Z"/>
    <path class="cls-2" d="m58.91,522.89c.77,0,1.45.15,2.03.45s1.05.76,1.38,1.37c.33.61.5,1.39.5,2.32v5.49h-1.73v-5.29c0-.92-.22-1.62-.65-2.09s-1.04-.7-1.82-.7c-.58,0-1.08.12-1.51.36s-.77.59-1,1.06-.35,1.05-.35,1.75v4.91h-1.73v-5.29c0-.92-.21-1.62-.64-2.09-.43-.47-1.04-.7-1.83-.7-.56,0-1.06.12-1.49.36s-.77.59-1.01,1.06c-.24.47-.36,1.05-.36,1.75v4.91h-1.73v-9.54h1.66v2.54l-.27-.65c.3-.62.76-1.11,1.39-1.46.62-.35,1.35-.52,2.18-.52.91,0,1.7.22,2.36.67.66.45,1.09,1.13,1.3,2.04l-.7-.29c.29-.73.79-1.32,1.51-1.76.72-.44,1.56-.67,2.52-.67Z"/>
    <path class="cls-2" d="m68.8,532.62c-.71,0-1.33-.12-1.86-.36-.53-.24-.94-.57-1.23-1s-.43-.91-.43-1.45.12-.98.37-1.4c.25-.42.65-.76,1.21-1.01s1.31-.38,2.26-.38h3.02v1.24h-2.95c-.86,0-1.45.14-1.75.43-.3.29-.45.64-.45,1.04,0,.47.19.84.56,1.12.37.28.89.42,1.55.42s1.22-.14,1.7-.43.84-.71,1.05-1.26l.34,1.19c-.23.56-.63,1.01-1.21,1.34s-1.3.5-2.18.5Zm3.13-.11v-2.02l-.09-.38v-3.44c0-.73-.21-1.3-.64-1.7-.43-.4-1.06-.6-1.92-.6-.56,0-1.12.09-1.66.28-.54.19-1,.44-1.37.75l-.72-1.3c.49-.4,1.08-.7,1.77-.91.69-.21,1.41-.31,2.17-.31,1.31,0,2.32.32,3.02.95.71.64,1.06,1.61,1.06,2.92v5.76h-1.64Z"/>
    <path class="cls-2" d="m81.86,522.89c.78,0,1.47.15,2.06.45.59.3,1.06.76,1.4,1.37.34.61.5,1.39.5,2.32v5.49h-1.73v-5.29c0-.92-.23-1.62-.67-2.09-.45-.47-1.08-.7-1.9-.7-.61,0-1.15.12-1.6.36s-.81.59-1.05,1.06-.37,1.05-.37,1.75v4.91h-1.73v-9.54h1.66v2.57l-.27-.68c.31-.62.79-1.11,1.44-1.46.65-.35,1.4-.52,2.27-.52Z"/>
    <path class="cls-2" d="m91.82,532.62c-.71,0-1.33-.12-1.86-.36-.53-.24-.94-.57-1.23-1s-.43-.91-.43-1.45.12-.98.37-1.4c.25-.42.65-.76,1.21-1.01s1.31-.38,2.26-.38h3.02v1.24h-2.95c-.86,0-1.45.14-1.75.43-.3.29-.45.64-.45,1.04,0,.47.19.84.56,1.12.37.28.89.42,1.55.42s1.22-.14,1.7-.43.84-.71,1.05-1.26l.34,1.19c-.23.56-.63,1.01-1.21,1.34s-1.3.5-2.18.5Zm3.13-.11v-2.02l-.09-.38v-3.44c0-.73-.21-1.3-.64-1.7-.43-.4-1.06-.6-1.92-.6-.56,0-1.12.09-1.66.28-.54.19-1,.44-1.37.75l-.72-1.3c.49-.4,1.08-.7,1.77-.91.69-.21,1.41-.31,2.17-.31,1.31,0,2.32.32,3.02.95.71.64,1.06,1.61,1.06,2.92v5.76h-1.64Z"/>
    <path class="cls-2" d="m103.75,532.12c-.92,0-1.75-.19-2.48-.58-.73-.39-1.3-.93-1.73-1.63-.43-.7-.64-1.5-.64-2.41s.21-1.73.64-2.42c.43-.69,1-1.23,1.73-1.61s1.55-.58,2.48-.58c.82,0,1.56.17,2.23.5.67.33,1.21.84,1.61,1.52.4.68.6,1.55.6,2.59s-.2,1.89-.6,2.57c-.4.68-.94,1.2-1.61,1.54-.67.34-1.42.51-2.23.51Zm.22,4c-.88,0-1.73-.12-2.55-.37-.82-.25-1.49-.6-2.01-1.05l.83-1.33c.44.38.99.69,1.64.91s1.33.33,2.03.33c1.13,0,1.96-.26,2.48-.79.53-.53.79-1.33.79-2.41v-2.02l.18-1.89-.09-1.91v-2.61h1.64v8.24c0,1.68-.42,2.92-1.26,3.71s-2.07,1.19-3.69,1.19Zm-.02-5.51c.64,0,1.2-.13,1.69-.4s.88-.63,1.16-1.1c.28-.47.42-1.01.42-1.62s-.14-1.15-.42-1.62c-.28-.47-.67-.83-1.16-1.09-.49-.26-1.06-.39-1.69-.39s-1.2.13-1.7.39c-.5.26-.89.62-1.17,1.09-.28.47-.42,1.01-.42,1.62s.14,1.15.42,1.62c.28.47.67.83,1.17,1.1.5.26,1.06.4,1.7.4Z"/>
    <path class="cls-2" d="m116.46,532.62c-1.02,0-1.92-.21-2.69-.63-.77-.42-1.37-1-1.8-1.73-.43-.73-.64-1.57-.64-2.52s.21-1.79.62-2.52c.41-.73.98-1.3,1.71-1.72s1.54-.62,2.46-.62,1.74.2,2.45.61c.71.41,1.26.98,1.67,1.72.4.74.6,1.6.6,2.58,0,.07,0,.16,0,.25,0,.1-.02.19-.03.27h-8.12v-1.24h7.22l-.7.43c.01-.61-.11-1.16-.38-1.64-.26-.48-.63-.86-1.09-1.12-.46-.27-1-.41-1.61-.41s-1.13.13-1.6.41c-.47.27-.83.65-1.1,1.13-.26.49-.4,1.04-.4,1.67v.29c0,.64.15,1.2.44,1.7.29.5.7.88,1.23,1.16.53.28,1.13.41,1.82.41.56,0,1.08-.1,1.54-.29.46-.19.87-.48,1.21-.86l.95,1.12c-.43.5-.97.89-1.61,1.15-.64.26-1.36.4-2.15.4Z"/>
    <path class="cls-2" d="m127.17,532.62c-.92,0-1.75-.2-2.48-.61s-1.3-.98-1.72-1.71c-.42-.73-.63-1.58-.63-2.56s.21-1.82.63-2.55c.42-.73.99-1.29,1.72-1.7.73-.41,1.55-.61,2.48-.61.8,0,1.53.18,2.18.54.65.36,1.17.9,1.56,1.62.39.72.58,1.62.58,2.7s-.19,1.98-.57,2.7c-.38.72-.89,1.26-1.54,1.63-.65.37-1.39.55-2.21.55Zm.14-1.51c.6,0,1.14-.14,1.63-.41.49-.28.87-.67,1.15-1.18.28-.51.42-1.1.42-1.77s-.14-1.28-.42-1.77-.67-.88-1.15-1.16c-.49-.28-1.03-.41-1.63-.41s-1.16.14-1.64.41c-.48.28-.86.66-1.15,1.16s-.43,1.09-.43,1.77.14,1.26.43,1.77c.29.51.67.9,1.15,1.18.48.28,1.03.41,1.64.41Zm3.26,1.4v-2.57l.11-2.21-.18-2.21v-6.35h1.73v13.36h-1.66Z"/>
    <path class="cls-2" d="m143.13,532.62c-.71,0-1.33-.12-1.86-.36-.53-.24-.94-.57-1.23-1s-.43-.91-.43-1.45.12-.98.37-1.4c.25-.42.65-.76,1.21-1.01s1.31-.38,2.26-.38h3.02v1.24h-2.95c-.86,0-1.45.14-1.75.43-.3.29-.45.64-.45,1.04,0,.47.19.84.56,1.12.37.28.89.42,1.55.42s1.22-.14,1.7-.43.84-.71,1.05-1.26l.34,1.19c-.23.56-.63,1.01-1.21,1.34s-1.3.5-2.18.5Zm3.13-.11v-2.02l-.09-.38v-3.44c0-.73-.21-1.3-.64-1.7-.43-.4-1.06-.6-1.92-.6-.56,0-1.12.09-1.66.28-.54.19-1,.44-1.37.75l-.72-1.3c.49-.4,1.08-.7,1.77-.91.69-.21,1.41-.31,2.17-.31,1.31,0,2.32.32,3.02.95.71.64,1.06,1.61,1.06,2.92v5.76h-1.64Z"/>
    <path class="cls-2" d="m153.84,532.62c-.79,0-1.55-.11-2.26-.32-.71-.22-1.28-.48-1.68-.79l.72-1.37c.41.28.91.51,1.51.7.6.19,1.21.29,1.84.29.8,0,1.38-.11,1.74-.34.35-.23.53-.55.53-.95,0-.3-.11-.53-.32-.7-.22-.17-.5-.29-.85-.38s-.75-.16-1.18-.23c-.43-.07-.86-.15-1.3-.25-.43-.1-.83-.25-1.19-.43-.36-.19-.65-.44-.86-.77s-.32-.77-.32-1.32.16-1.08.49-1.51c.32-.43.78-.76,1.38-1,.59-.23,1.3-.35,2.11-.35.62,0,1.26.08,1.9.22.64.15,1.17.36,1.57.64l-.74,1.37c-.43-.29-.88-.49-1.35-.59-.47-.11-.94-.16-1.4-.16-.76,0-1.32.12-1.69.37s-.56.56-.56.95c0,.32.11.57.33.75s.51.31.86.4c.35.1.75.18,1.18.24.43.07.86.15,1.3.25.43.1.82.24,1.18.42.35.18.64.43.86.76.22.32.33.76.33,1.3,0,.58-.17,1.07-.5,1.49-.34.42-.81.75-1.42.98-.61.23-1.34.35-2.2.35Z"/>
    <path class="cls-2" d="m167.76,532.62c-.71,0-1.33-.12-1.86-.36-.53-.24-.94-.57-1.23-1s-.43-.91-.43-1.45.12-.98.37-1.4c.25-.42.65-.76,1.21-1.01s1.31-.38,2.26-.38h3.02v1.24h-2.95c-.86,0-1.45.14-1.75.43-.3.29-.45.64-.45,1.04,0,.47.19.84.56,1.12.37.28.89.42,1.55.42s1.22-.14,1.7-.43.84-.71,1.05-1.26l.34,1.19c-.23.56-.63,1.01-1.21,1.34s-1.3.5-2.18.5Zm3.13-.11v-2.02l-.09-.38v-3.44c0-.73-.21-1.3-.64-1.7-.43-.4-1.06-.6-1.92-.6-.56,0-1.12.09-1.66.28-.54.19-1,.44-1.37.75l-.72-1.3c.49-.4,1.08-.7,1.77-.91.69-.21,1.41-.31,2.17-.31,1.31,0,2.32.32,3.02.95.71.64,1.06,1.61,1.06,2.92v5.76h-1.64Z"/>
    <path class="cls-2" d="m5.04,554.22c-.97,0-1.84-.21-2.6-.63-.76-.42-1.36-1-1.79-1.73-.43-.73-.65-1.57-.65-2.52s.22-1.79.65-2.52c.43-.73,1.03-1.3,1.79-1.72s1.63-.62,2.6-.62c.86,0,1.63.17,2.31.51.68.34,1.2.85,1.58,1.52l-1.31.85c-.31-.47-.69-.81-1.14-1.04-.45-.22-.93-.33-1.45-.33-.62,0-1.18.14-1.67.41-.49.28-.88.66-1.17,1.16s-.43,1.09-.43,1.77.14,1.28.43,1.78.68.89,1.17,1.17c.49.28,1.05.41,1.67.41.52,0,1-.11,1.45-.33.45-.22.83-.57,1.14-1.04l1.31.83c-.37.66-.9,1.17-1.58,1.52-.68.35-1.45.53-2.31.53Z"/>
    <path class="cls-2" d="m15.25,554.22c-.95,0-1.8-.21-2.55-.63-.75-.42-1.34-1-1.77-1.74-.43-.74-.65-1.58-.65-2.51s.22-1.79.65-2.51c.43-.73,1.02-1.3,1.76-1.72s1.6-.63,2.56-.63,1.8.21,2.55.62,1.34.99,1.76,1.72c.43.73.64,1.57.64,2.52s-.21,1.79-.64,2.52c-.43.73-1.01,1.31-1.76,1.73-.75.42-1.6.63-2.55.63Zm0-1.51c.61,0,1.16-.14,1.65-.41.49-.28.87-.67,1.14-1.18.28-.51.41-1.1.41-1.77s-.14-1.28-.41-1.77c-.28-.5-.66-.88-1.14-1.16-.49-.28-1.04-.41-1.65-.41s-1.16.14-1.64.41c-.48.28-.86.66-1.15,1.16s-.43,1.09-.43,1.77.14,1.26.43,1.77c.29.51.67.9,1.15,1.18.48.28,1.03.41,1.64.41Z"/>
    <path class="cls-2" d="m34.52,544.49c.77,0,1.45.15,2.03.45s1.05.76,1.38,1.37c.33.61.5,1.39.5,2.32v5.49h-1.73v-5.29c0-.92-.22-1.62-.65-2.09s-1.04-.7-1.82-.7c-.58,0-1.08.12-1.51.36s-.77.59-1,1.06-.35,1.05-.35,1.75v4.91h-1.73v-5.29c0-.92-.21-1.62-.64-2.09-.43-.47-1.04-.7-1.83-.7-.56,0-1.06.12-1.49.36s-.77.59-1.01,1.06c-.24.47-.36,1.05-.36,1.75v4.91h-1.73v-9.54h1.66v2.54l-.27-.65c.3-.62.76-1.11,1.39-1.46.62-.35,1.35-.52,2.18-.52.91,0,1.7.22,2.36.67.66.45,1.09,1.13,1.3,2.04l-.7-.29c.29-.73.79-1.32,1.51-1.76.72-.44,1.56-.67,2.52-.67Z"/>
    <path class="cls-2" d="m53.55,544.49c.77,0,1.45.15,2.03.45s1.05.76,1.38,1.37c.33.61.5,1.39.5,2.32v5.49h-1.73v-5.29c0-.92-.22-1.62-.65-2.09s-1.04-.7-1.82-.7c-.58,0-1.08.12-1.51.36s-.77.59-1,1.06-.35,1.05-.35,1.75v4.91h-1.73v-5.29c0-.92-.21-1.62-.64-2.09-.43-.47-1.04-.7-1.83-.7-.56,0-1.06.12-1.49.36s-.77.59-1.01,1.06c-.24.47-.36,1.05-.36,1.75v4.91h-1.73v-9.54h1.66v2.54l-.27-.65c.3-.62.76-1.11,1.39-1.46.62-.35,1.35-.52,2.18-.52.91,0,1.7.22,2.36.67.66.45,1.09,1.13,1.3,2.04l-.7-.29c.29-.73.79-1.32,1.51-1.76.72-.44,1.56-.67,2.52-.67Z"/>
    <path class="cls-2" d="m64.73,554.22c-.95,0-1.8-.21-2.55-.63-.75-.42-1.34-1-1.77-1.74-.43-.74-.65-1.58-.65-2.51s.22-1.79.65-2.51c.43-.73,1.02-1.3,1.76-1.72s1.6-.63,2.56-.63,1.8.21,2.55.62,1.34.99,1.76,1.72c.43.73.64,1.57.64,2.52s-.21,1.79-.64,2.52c-.43.73-1.01,1.31-1.76,1.73-.75.42-1.6.63-2.55.63Zm0-1.51c.61,0,1.16-.14,1.65-.41.49-.28.87-.67,1.14-1.18.28-.51.41-1.1.41-1.77s-.14-1.28-.41-1.77c-.28-.5-.66-.88-1.14-1.16-.49-.28-1.04-.41-1.65-.41s-1.16.14-1.64.41c-.48.28-.86.66-1.15,1.16s-.43,1.09-.43,1.77.14,1.26.43,1.77c.29.51.67.9,1.15,1.18.48.28,1.03.41,1.64.41Z"/>
    <path class="cls-2" d="m77.17,544.49c.78,0,1.47.15,2.06.45.59.3,1.06.76,1.4,1.37.34.61.5,1.39.5,2.32v5.49h-1.73v-5.29c0-.92-.23-1.62-.67-2.09-.45-.47-1.08-.7-1.9-.7-.61,0-1.15.12-1.6.36s-.81.59-1.05,1.06-.37,1.05-.37,1.75v4.91h-1.73v-9.54h1.66v2.57l-.27-.68c.31-.62.79-1.11,1.44-1.46.65-.35,1.4-.52,2.27-.52Z"/>
    <path class="cls-2" d="m89.17,554.12v-9.54h1.66v2.59l-.16-.65c.26-.66.71-1.16,1.33-1.51.62-.35,1.39-.52,2.3-.52v1.67c-.07-.01-.14-.02-.21-.02h-.19c-.92,0-1.66.28-2.2.83-.54.55-.81,1.35-.81,2.39v4.75h-1.73Z"/>
    <path class="cls-2" d="m100.8,554.22c-1.02,0-1.92-.21-2.69-.63-.77-.42-1.37-1-1.8-1.73-.43-.73-.64-1.57-.64-2.52s.21-1.79.62-2.52c.41-.73.98-1.3,1.71-1.72s1.54-.62,2.46-.62,1.74.2,2.45.61c.71.41,1.26.98,1.67,1.72.4.74.6,1.6.6,2.58,0,.07,0,.16,0,.25,0,.1-.02.19-.03.27h-8.12v-1.24h7.22l-.7.43c.01-.61-.11-1.16-.38-1.64-.26-.48-.63-.86-1.09-1.12-.46-.27-1-.41-1.61-.41s-1.13.13-1.6.41c-.47.27-.83.65-1.1,1.13-.26.49-.4,1.04-.4,1.67v.29c0,.64.15,1.2.44,1.7.29.5.7.88,1.23,1.16.53.28,1.13.41,1.82.41.56,0,1.08-.1,1.54-.29.46-.19.87-.48,1.21-.86l.95,1.12c-.43.5-.97.89-1.61,1.15-.64.26-1.36.4-2.15.4Z"/>
    <path class="cls-2" d="m110.3,554.22c-.79,0-1.55-.11-2.26-.32-.71-.22-1.28-.48-1.68-.79l.72-1.37c.41.28.91.51,1.51.7.6.19,1.21.29,1.84.29.8,0,1.38-.11,1.74-.34.35-.23.53-.55.53-.95,0-.3-.11-.53-.32-.7-.22-.17-.5-.29-.85-.38s-.75-.16-1.18-.23c-.43-.07-.86-.15-1.3-.25-.43-.1-.83-.25-1.19-.43-.36-.19-.65-.44-.86-.77s-.32-.77-.32-1.32.16-1.08.49-1.51c.32-.43.78-.76,1.38-1,.59-.23,1.3-.35,2.11-.35.62,0,1.26.08,1.9.22.64.15,1.17.36,1.57.64l-.74,1.37c-.43-.29-.88-.49-1.35-.59-.47-.11-.94-.16-1.4-.16-.76,0-1.32.12-1.69.37s-.56.56-.56.95c0,.32.11.57.33.75s.51.31.86.4c.35.1.75.18,1.18.24.43.07.86.15,1.3.25.43.1.82.24,1.18.42.35.18.64.43.86.76.22.32.33.76.33,1.3,0,.58-.17,1.07-.5,1.49-.34.42-.81.75-1.42.98-.61.23-1.34.35-2.2.35Z"/>
    <path class="cls-2" d="m120.67,554.22c-.95,0-1.8-.21-2.55-.63-.75-.42-1.34-1-1.77-1.74-.43-.74-.65-1.58-.65-2.51s.22-1.79.65-2.51c.43-.73,1.02-1.3,1.76-1.72s1.6-.63,2.56-.63,1.8.21,2.55.62,1.34.99,1.76,1.72c.43.73.64,1.57.64,2.52s-.21,1.79-.64,2.52c-.43.73-1.01,1.31-1.76,1.73-.75.42-1.6.63-2.55.63Zm0-1.51c.61,0,1.16-.14,1.65-.41.49-.28.87-.67,1.14-1.18.28-.51.41-1.1.41-1.77s-.14-1.28-.41-1.77c-.28-.5-.66-.88-1.14-1.16-.49-.28-1.04-.41-1.65-.41s-1.16.14-1.64.41c-.48.28-.86.66-1.15,1.16s-.43,1.09-.43,1.77.14,1.26.43,1.77c.29.51.67.9,1.15,1.18.48.28,1.03.41,1.64.41Z"/>
    <path class="cls-2" d="m132.03,554.22c-.82,0-1.53-.15-2.15-.45s-1.1-.76-1.44-1.38-.51-1.4-.51-2.33v-5.49h1.73v5.29c0,.94.23,1.64.68,2.11.45.47,1.08.7,1.9.7.6,0,1.12-.12,1.57-.37.44-.25.79-.61,1.03-1.08.24-.47.36-1.05.36-1.72v-4.93h1.73v9.54h-1.64v-2.57l.27.68c-.31.64-.78,1.13-1.4,1.48-.62.35-1.33.52-2.11.52Z"/>
    <path class="cls-2" d="m140.2,554.12v-9.54h1.66v2.59l-.16-.65c.26-.66.71-1.16,1.33-1.51.62-.35,1.39-.52,2.3-.52v1.67c-.07-.01-.14-.02-.21-.02h-.19c-.92,0-1.66.28-2.2.83-.54.55-.81,1.35-.81,2.39v4.75h-1.73Z"/>
    <path class="cls-2" d="m151.74,554.22c-.97,0-1.84-.21-2.6-.63-.76-.42-1.36-1-1.79-1.73-.43-.73-.65-1.57-.65-2.52s.22-1.79.65-2.52c.43-.73,1.03-1.3,1.79-1.72s1.63-.62,2.6-.62c.86,0,1.63.17,2.31.51.68.34,1.2.85,1.58,1.52l-1.31.85c-.31-.47-.69-.81-1.14-1.04-.45-.22-.93-.33-1.45-.33-.62,0-1.18.14-1.67.41-.49.28-.88.66-1.17,1.16s-.43,1.09-.43,1.77.14,1.28.43,1.78.68.89,1.17,1.17c.49.28,1.05.41,1.67.41.52,0,1-.11,1.45-.33.45-.22.83-.57,1.14-1.04l1.31.83c-.37.66-.9,1.17-1.58,1.52-.68.35-1.45.53-2.31.53Z"/>
    <path class="cls-2" d="m162.11,554.22c-1.02,0-1.92-.21-2.69-.63-.77-.42-1.37-1-1.8-1.73-.43-.73-.64-1.57-.64-2.52s.21-1.79.62-2.52c.41-.73.98-1.3,1.71-1.72s1.54-.62,2.46-.62,1.74.2,2.45.61c.71.41,1.26.98,1.67,1.72.4.74.6,1.6.6,2.58,0,.07,0,.16,0,.25,0,.1-.02.19-.03.27h-8.12v-1.24h7.22l-.7.43c.01-.61-.11-1.16-.38-1.64-.26-.48-.63-.86-1.09-1.12-.46-.27-1-.41-1.61-.41s-1.13.13-1.6.41c-.47.27-.83.65-1.1,1.13-.26.49-.4,1.04-.4,1.67v.29c0,.64.15,1.2.44,1.7.29.5.7.88,1.23,1.16.53.28,1.13.41,1.82.41.56,0,1.08-.1,1.54-.29.46-.19.87-.48,1.21-.86l.95,1.12c-.43.5-.97.89-1.61,1.15-.64.26-1.36.4-2.15.4Z"/>
  </g>
  <rect class="cls-1" x="260.7" y="313.76" width="372.91" height="96.79"/>
  <g>
    <path class="cls-2" d="m6.77,346.02c-.96,0-1.84-.16-2.65-.48-.81-.32-1.51-.77-2.11-1.35-.59-.58-1.06-1.26-1.4-2.04-.34-.78-.5-1.64-.5-2.57s.17-1.79.5-2.57c.34-.78.8-1.46,1.4-2.04s1.31-1.03,2.12-1.35c.81-.32,1.69-.48,2.65-.48s1.87.17,2.69.5,1.52.82,2.1,1.47l-1.17,1.13c-.48-.5-1.02-.88-1.62-1.12-.6-.25-1.24-.37-1.93-.37s-1.36.12-1.97.36c-.61.24-1.13.58-1.58,1.01-.44.43-.79.95-1.03,1.54-.25.59-.37,1.24-.37,1.94s.12,1.34.37,1.93c.25.59.59,1.11,1.03,1.54.44.43.97.77,1.58,1.01.61.24,1.26.36,1.97.36s1.33-.12,1.93-.37,1.14-.63,1.62-1.14l1.17,1.13c-.58.65-1.28,1.14-2.1,1.48-.82.34-1.73.5-2.71.5Z"/>
    <path class="cls-2" d="m17.98,345.98c-.95,0-1.8-.21-2.55-.63-.75-.42-1.34-1-1.77-1.74-.43-.74-.65-1.58-.65-2.51s.22-1.79.65-2.51c.43-.73,1.02-1.3,1.76-1.72s1.6-.63,2.56-.63,1.8.21,2.55.62,1.34.99,1.76,1.72c.43.73.64,1.57.64,2.52s-.21,1.79-.64,2.52c-.43.73-1.01,1.31-1.76,1.73-.75.42-1.6.63-2.55.63Zm0-1.51c.61,0,1.16-.14,1.65-.41.49-.28.87-.67,1.14-1.18.28-.51.41-1.1.41-1.77s-.14-1.28-.41-1.77c-.28-.5-.66-.88-1.14-1.16-.49-.28-1.04-.41-1.65-.41s-1.16.14-1.64.41c-.48.28-.86.66-1.15,1.16s-.43,1.09-.43,1.77.14,1.26.43,1.77c.29.51.67.9,1.15,1.18.48.28,1.03.41,1.64.41Z"/>
    <path class="cls-2" d="m37.26,336.24c.77,0,1.45.15,2.03.45s1.05.76,1.38,1.37c.33.61.5,1.39.5,2.32v5.49h-1.73v-5.29c0-.92-.22-1.62-.65-2.09s-1.04-.7-1.82-.7c-.58,0-1.08.12-1.51.36s-.77.59-1,1.06-.35,1.05-.35,1.75v4.91h-1.73v-5.29c0-.92-.21-1.62-.64-2.09-.43-.47-1.04-.7-1.83-.7-.56,0-1.06.12-1.49.36s-.77.59-1.01,1.06c-.24.47-.36,1.05-.36,1.75v4.91h-1.73v-9.54h1.66v2.54l-.27-.65c.3-.62.76-1.11,1.39-1.46.62-.35,1.35-.52,2.18-.52.91,0,1.7.22,2.36.67.66.45,1.09,1.13,1.3,2.04l-.7-.29c.29-.73.79-1.32,1.51-1.76.72-.44,1.56-.67,2.52-.67Z"/>
    <path class="cls-2" d="m56.29,336.24c.77,0,1.45.15,2.03.45s1.05.76,1.38,1.37c.33.61.5,1.39.5,2.32v5.49h-1.73v-5.29c0-.92-.22-1.62-.65-2.09s-1.04-.7-1.82-.7c-.58,0-1.08.12-1.51.36s-.77.59-1,1.06-.35,1.05-.35,1.75v4.91h-1.73v-5.29c0-.92-.21-1.62-.64-2.09-.43-.47-1.04-.7-1.83-.7-.56,0-1.06.12-1.49.36s-.77.59-1.01,1.06c-.24.47-.36,1.05-.36,1.75v4.91h-1.73v-9.54h1.66v2.54l-.27-.65c.3-.62.76-1.11,1.39-1.46.62-.35,1.35-.52,2.18-.52.91,0,1.7.22,2.36.67.66.45,1.09,1.13,1.3,2.04l-.7-.29c.29-.73.79-1.32,1.51-1.76.72-.44,1.56-.67,2.52-.67Z"/>
    <path class="cls-2" d="m67.46,345.98c-.95,0-1.8-.21-2.55-.63-.75-.42-1.34-1-1.77-1.74-.43-.74-.65-1.58-.65-2.51s.22-1.79.65-2.51c.43-.73,1.02-1.3,1.76-1.72s1.6-.63,2.56-.63,1.8.21,2.55.62,1.34.99,1.76,1.72c.43.73.64,1.57.64,2.52s-.21,1.79-.64,2.52c-.43.73-1.01,1.31-1.76,1.73-.75.42-1.6.63-2.55.63Zm0-1.51c.61,0,1.16-.14,1.65-.41.49-.28.87-.67,1.14-1.18.28-.51.41-1.1.41-1.77s-.14-1.28-.41-1.77c-.28-.5-.66-.88-1.14-1.16-.49-.28-1.04-.41-1.65-.41s-1.16.14-1.64.41c-.48.28-.86.66-1.15,1.16s-.43,1.09-.43,1.77.14,1.26.43,1.77c.29.51.67.9,1.15,1.18.48.28,1.03.41,1.64.41Z"/>
    <path class="cls-2" d="m79.9,336.24c.78,0,1.47.15,2.06.45.59.3,1.06.76,1.4,1.37.34.61.5,1.39.5,2.32v5.49h-1.73v-5.29c0-.92-.23-1.62-.67-2.09-.45-.47-1.08-.7-1.9-.7-.61,0-1.15.12-1.6.36s-.81.59-1.05,1.06-.37,1.05-.37,1.75v4.91h-1.73v-9.54h1.66v2.57l-.27-.68c.31-.62.79-1.11,1.44-1.46.65-.35,1.4-.52,2.27-.52Z"/>
    <path class="cls-2" d="m95.85,345.98c-.92,0-1.75-.2-2.48-.61s-1.3-.98-1.72-1.71c-.42-.73-.63-1.58-.63-2.56s.21-1.82.63-2.55c.42-.73.99-1.29,1.72-1.7.73-.41,1.55-.61,2.48-.61.8,0,1.53.18,2.18.54.65.36,1.17.9,1.56,1.62.39.72.58,1.62.58,2.7s-.19,1.98-.57,2.7c-.38.72-.89,1.26-1.54,1.63-.65.37-1.39.55-2.21.55Zm.14-1.51c.6,0,1.14-.14,1.63-.41.49-.28.87-.67,1.15-1.18.28-.51.42-1.1.42-1.77s-.14-1.28-.42-1.77-.67-.88-1.15-1.16c-.49-.28-1.03-.41-1.63-.41s-1.16.14-1.64.41c-.48.28-.86.66-1.15,1.16s-.43,1.09-.43,1.77.14,1.26.43,1.77c.29.51.67.9,1.15,1.18.48.28,1.03.41,1.64.41Zm3.26,1.4v-2.57l.11-2.21-.18-2.21v-6.35h1.73v13.36h-1.66Z"/>
    <path class="cls-2" d="m106.97,345.98c-.71,0-1.33-.12-1.86-.36-.53-.24-.94-.57-1.23-1s-.43-.91-.43-1.45.12-.98.37-1.4c.25-.42.65-.76,1.21-1.01s1.31-.38,2.26-.38h3.02v1.24h-2.95c-.86,0-1.45.14-1.75.43-.3.29-.45.64-.45,1.04,0,.47.19.84.56,1.12.37.28.89.42,1.55.42s1.22-.14,1.7-.43.84-.71,1.05-1.26l.34,1.19c-.23.56-.63,1.01-1.21,1.34s-1.3.5-2.18.5Zm3.13-.11v-2.02l-.09-.38v-3.44c0-.73-.21-1.3-.64-1.7-.43-.4-1.06-.6-1.92-.6-.56,0-1.12.09-1.66.28-.54.19-1,.44-1.37.75l-.72-1.3c.49-.4,1.08-.7,1.77-.91.69-.21,1.41-.31,2.17-.31,1.31,0,2.32.32,3.02.95.71.64,1.06,1.61,1.06,2.92v5.76h-1.64Z"/>
    <path class="cls-2" d="m113.58,337.76v-1.42h6.08v1.42h-6.08Zm4.64,8.23c-.96,0-1.7-.26-2.23-.77-.53-.52-.79-1.25-.79-2.21v-8.75h1.73v8.68c0,.52.13.91.39,1.19.26.28.63.41,1.11.41.54,0,.99-.15,1.35-.45l.54,1.24c-.26.23-.58.4-.94.5-.37.11-.75.16-1.14.16Z"/>
    <path class="cls-2" d="m125.19,345.98c-.71,0-1.33-.12-1.86-.36-.53-.24-.94-.57-1.23-1s-.43-.91-.43-1.45.12-.98.37-1.4c.25-.42.65-.76,1.21-1.01s1.31-.38,2.26-.38h3.02v1.24h-2.95c-.86,0-1.45.14-1.75.43-.3.29-.45.64-.45,1.04,0,.47.19.84.56,1.12.37.28.89.42,1.55.42s1.22-.14,1.7-.43.84-.71,1.05-1.26l.34,1.19c-.23.56-.63,1.01-1.21,1.34s-1.3.5-2.18.5Zm3.13-.11v-2.02l-.09-.38v-3.44c0-.73-.21-1.3-.64-1.7-.43-.4-1.06-.6-1.92-.6-.56,0-1.12.09-1.66.28-.54.19-1,.44-1.37.75l-.72-1.3c.49-.4,1.08-.7,1.77-.91.69-.21,1.41-.31,2.17-.31,1.31,0,2.32.32,3.02.95.71.64,1.06,1.61,1.06,2.92v5.76h-1.64Z"/>
    <path class="cls-2" d="m1.75,356.1c-.34,0-.62-.11-.84-.32-.22-.22-.33-.48-.33-.79s.11-.59.33-.81c.22-.22.5-.32.84-.32s.61.11.84.32.33.47.33.78-.11.6-.32.82c-.22.22-.5.33-.85.33Zm-.86,11.38v-9.54h1.73v9.54H.88Z"/>
    <path class="cls-2" d="m11,357.84c.78,0,1.47.15,2.06.45.59.3,1.06.76,1.4,1.37.34.61.5,1.39.5,2.32v5.49h-1.73v-5.29c0-.92-.23-1.62-.67-2.09-.45-.47-1.08-.7-1.9-.7-.61,0-1.15.12-1.6.36s-.81.59-1.05,1.06-.37,1.05-.37,1.75v4.91h-1.73v-9.54h1.66v2.57l-.27-.68c.31-.62.79-1.11,1.44-1.46.65-.35,1.4-.52,2.27-.52Z"/>
    <path class="cls-2" d="m16.79,359.36v-1.42h6.08v1.42h-6.08Zm1.62,8.12v-10.39c0-.94.27-1.68.82-2.24.55-.56,1.32-.84,2.33-.84.37,0,.73.04,1.07.13.34.09.63.23.87.42l-.52,1.31c-.18-.14-.38-.25-.61-.33-.23-.08-.47-.12-.72-.12-.5,0-.89.14-1.15.42-.26.28-.4.7-.4,1.25v1.28l.04.79v8.3h-1.73Z"/>
    <path class="cls-2" d="m24.52,367.47v-9.54h1.66v2.59l-.16-.65c.26-.66.71-1.16,1.33-1.51.62-.35,1.39-.52,2.3-.52v1.67c-.07-.01-.14-.02-.21-.02h-.19c-.92,0-1.66.28-2.2.83-.54.55-.81,1.35-.81,2.39v4.75h-1.73Z"/>
    <path class="cls-2" d="m34.69,367.58c-.71,0-1.33-.12-1.86-.36-.53-.24-.94-.57-1.23-1s-.43-.91-.43-1.45.12-.98.37-1.4c.25-.42.65-.76,1.21-1.01s1.31-.38,2.26-.38h3.02v1.24h-2.95c-.86,0-1.45.14-1.75.43-.3.29-.45.64-.45,1.04,0,.47.19.84.56,1.12.37.28.89.42,1.55.42s1.22-.14,1.7-.43.84-.71,1.05-1.26l.34,1.19c-.23.56-.63,1.01-1.21,1.34s-1.3.5-2.18.5Zm3.13-.11v-2.02l-.09-.38v-3.44c0-.73-.21-1.3-.64-1.7-.43-.4-1.06-.6-1.92-.6-.56,0-1.12.09-1.66.28-.54.19-1,.44-1.37.75l-.72-1.3c.49-.4,1.08-.7,1.77-.91.69-.21,1.41-.31,2.17-.31,1.31,0,2.32.32,3.02.95.71.64,1.06,1.61,1.06,2.92v5.76h-1.64Z"/>
    <path class="cls-2" d="m45.4,367.58c-.79,0-1.55-.11-2.26-.32-.71-.22-1.28-.48-1.68-.79l.72-1.37c.41.28.91.51,1.51.7.6.19,1.21.29,1.84.29.8,0,1.38-.11,1.74-.34.35-.23.53-.55.53-.95,0-.3-.11-.53-.32-.7-.22-.17-.5-.29-.85-.38s-.75-.16-1.18-.23c-.43-.07-.86-.15-1.3-.25-.43-.1-.83-.25-1.19-.43-.36-.19-.65-.44-.86-.77s-.32-.77-.32-1.32.16-1.08.49-1.51c.32-.43.78-.76,1.38-1,.59-.23,1.3-.35,2.11-.35.62,0,1.26.08,1.9.22.64.15,1.17.36,1.57.64l-.74,1.37c-.43-.29-.88-.49-1.35-.59-.47-.11-.94-.16-1.4-.16-.76,0-1.32.12-1.69.37s-.56.56-.56.95c0,.32.11.57.33.75s.51.31.86.4c.35.1.75.18,1.18.24.43.07.86.15,1.3.25.43.1.82.24,1.18.42.35.18.64.43.86.76.22.32.33.76.33,1.3,0,.58-.17,1.07-.5,1.49-.34.42-.81.75-1.42.98-.61.23-1.34.35-2.2.35Z"/>
    <path class="cls-2" d="m50.31,359.36v-1.42h6.08v1.42h-6.08Zm4.64,8.23c-.96,0-1.7-.26-2.23-.77-.53-.52-.79-1.25-.79-2.21v-8.75h1.73v8.68c0,.52.13.91.39,1.19.26.28.63.41,1.11.41.54,0,.99-.15,1.35-.45l.54,1.24c-.26.23-.58.4-.94.5-.37.11-.75.16-1.14.16Z"/>
    <path class="cls-2" d="m59.13,367.47v-9.54h1.66v2.59l-.16-.65c.26-.66.71-1.16,1.33-1.51.62-.35,1.39-.52,2.3-.52v1.67c-.07-.01-.14-.02-.21-.02h-.19c-.92,0-1.66.28-2.2.83-.54.55-.81,1.35-.81,2.39v4.75h-1.73Z"/>
    <path class="cls-2" d="m70.52,367.58c-.82,0-1.53-.15-2.15-.45s-1.1-.76-1.44-1.38-.51-1.4-.51-2.33v-5.49h1.73v5.29c0,.94.23,1.64.68,2.11.45.47,1.08.7,1.9.7.6,0,1.12-.12,1.57-.37.44-.25.79-.61,1.03-1.08.24-.47.36-1.05.36-1.72v-4.93h1.73v9.54h-1.64v-2.57l.27.68c-.31.64-.78,1.13-1.4,1.48-.62.35-1.33.52-2.11.52Z"/>
    <path class="cls-2" d="m82.85,367.58c-.97,0-1.84-.21-2.6-.63-.76-.42-1.36-1-1.79-1.73-.43-.73-.65-1.57-.65-2.52s.22-1.79.65-2.52c.43-.73,1.03-1.3,1.79-1.72s1.63-.62,2.6-.62c.86,0,1.63.17,2.31.51.68.34,1.2.85,1.58,1.52l-1.31.85c-.31-.47-.69-.81-1.14-1.04-.45-.22-.93-.33-1.45-.33-.62,0-1.18.14-1.67.41-.49.28-.88.66-1.17,1.16s-.43,1.09-.43,1.77.14,1.28.43,1.78.68.89,1.17,1.17c.49.28,1.05.41,1.67.41.52,0,1-.11,1.45-.33.45-.22.83-.57,1.14-1.04l1.31.83c-.37.66-.9,1.17-1.58,1.52-.68.35-1.45.53-2.31.53Z"/>
    <path class="cls-2" d="m87.6,359.36v-1.42h6.08v1.42h-6.08Zm4.64,8.23c-.96,0-1.7-.26-2.23-.77-.53-.52-.79-1.25-.79-2.21v-8.75h1.73v8.68c0,.52.13.91.39,1.19.26.28.63.41,1.11.41.54,0,.99-.15,1.35-.45l.54,1.24c-.26.23-.58.4-.94.5-.37.11-.75.16-1.14.16Z"/>
    <path class="cls-2" d="m100.44,367.58c-.82,0-1.53-.15-2.15-.45s-1.1-.76-1.44-1.38-.51-1.4-.51-2.33v-5.49h1.73v5.29c0,.94.23,1.64.68,2.11.45.47,1.08.7,1.9.7.6,0,1.12-.12,1.57-.37.44-.25.79-.61,1.03-1.08.24-.47.36-1.05.36-1.72v-4.93h1.73v9.54h-1.64v-2.57l.27.68c-.31.64-.78,1.13-1.4,1.48-.62.35-1.33.52-2.11.52Z"/>
    <path class="cls-2" d="m108.61,367.47v-9.54h1.66v2.59l-.16-.65c.26-.66.71-1.16,1.33-1.51.62-.35,1.39-.52,2.3-.52v1.67c-.07-.01-.14-.02-.21-.02h-.19c-.92,0-1.66.28-2.2.83-.54.55-.81,1.35-.81,2.39v4.75h-1.73Z"/>
    <path class="cls-2" d="m120.24,367.58c-1.02,0-1.92-.21-2.69-.63-.77-.42-1.37-1-1.8-1.73-.43-.73-.64-1.57-.64-2.52s.21-1.79.62-2.52c.41-.73.98-1.3,1.71-1.72s1.54-.62,2.46-.62,1.74.2,2.45.61c.71.41,1.26.98,1.67,1.72.4.74.6,1.6.6,2.58,0,.07,0,.16,0,.25,0,.1-.02.19-.03.27h-8.12v-1.24h7.22l-.7.43c.01-.61-.11-1.16-.38-1.64-.26-.48-.63-.86-1.09-1.12-.46-.27-1-.41-1.61-.41s-1.13.13-1.6.41c-.47.27-.83.65-1.1,1.13-.26.49-.4,1.04-.4,1.67v.29c0,.64.15,1.2.44,1.7.29.5.7.88,1.23,1.16.53.28,1.13.41,1.82.41.56,0,1.08-.1,1.54-.29.46-.19.87-.48,1.21-.86l.95,1.12c-.43.5-.97.89-1.61,1.15-.64.26-1.36.4-2.15.4Z"/>
    <path class="cls-2" d="m126.32,370.14l.9-3.64.23,1.04c-.35,0-.64-.11-.87-.32-.23-.22-.35-.51-.35-.88s.12-.65.35-.88c.23-.23.52-.34.85-.34s.63.12.85.35c.22.23.32.53.32.87,0,.12,0,.24-.03.35-.02.11-.05.25-.09.4s-.11.33-.19.55l-.85,2.5h-1.13Z"/>
    <path class="cls-2" d="m138.67,367.58c-.79,0-1.55-.11-2.26-.32-.71-.22-1.28-.48-1.68-.79l.72-1.37c.41.28.91.51,1.51.7.6.19,1.21.29,1.84.29.8,0,1.38-.11,1.74-.34.35-.23.53-.55.53-.95,0-.3-.11-.53-.32-.7-.22-.17-.5-.29-.85-.38s-.75-.16-1.18-.23c-.43-.07-.86-.15-1.3-.25-.43-.1-.83-.25-1.19-.43-.36-.19-.65-.44-.86-.77s-.32-.77-.32-1.32.16-1.08.49-1.51c.32-.43.78-.76,1.38-1,.59-.23,1.3-.35,2.11-.35.62,0,1.26.08,1.9.22.64.15,1.17.36,1.57.64l-.74,1.37c-.43-.29-.88-.49-1.35-.59-.47-.11-.94-.16-1.4-.16-.76,0-1.32.12-1.69.37s-.56.56-.56.95c0,.32.11.57.33.75s.51.31.86.4c.35.1.75.18,1.18.24.43.07.86.15,1.3.25.43.1.82.24,1.18.42.35.18.64.43.86.76.22.32.33.76.33,1.3,0,.58-.17,1.07-.5,1.49-.34.42-.81.75-1.42.98-.61.23-1.34.35-2.2.35Z"/>
    <path class="cls-2" d="m143.58,359.36v-1.42h6.08v1.42h-6.08Zm4.64,8.23c-.96,0-1.7-.26-2.23-.77-.53-.52-.79-1.25-.79-2.21v-8.75h1.73v8.68c0,.52.13.91.39,1.19.26.28.63.41,1.11.41.54,0,.99-.15,1.35-.45l.54,1.24c-.26.23-.58.4-.94.5-.37.11-.75.16-1.14.16Z"/>
    <path class="cls-2" d="m155.19,367.58c-.71,0-1.33-.12-1.86-.36-.53-.24-.94-.57-1.23-1s-.43-.91-.43-1.45.12-.98.37-1.4c.25-.42.65-.76,1.21-1.01s1.31-.38,2.26-.38h3.02v1.24h-2.95c-.86,0-1.45.14-1.75.43-.3.29-.45.64-.45,1.04,0,.47.19.84.56,1.12.37.28.89.42,1.55.42s1.22-.14,1.7-.43.84-.71,1.05-1.26l.34,1.19c-.23.56-.63,1.01-1.21,1.34s-1.3.5-2.18.5Zm3.13-.11v-2.02l-.09-.38v-3.44c0-.73-.21-1.3-.64-1.7-.43-.4-1.06-.6-1.92-.6-.56,0-1.12.09-1.66.28-.54.19-1,.44-1.37.75l-.72-1.3c.49-.4,1.08-.7,1.77-.91.69-.21,1.41-.31,2.17-.31,1.31,0,2.32.32,3.02.95.71.64,1.06,1.61,1.06,2.92v5.76h-1.64Z"/>
    <path class="cls-2" d="m168.26,357.84c.78,0,1.47.15,2.06.45.59.3,1.06.76,1.4,1.37.34.61.5,1.39.5,2.32v5.49h-1.73v-5.29c0-.92-.23-1.62-.67-2.09-.45-.47-1.08-.7-1.9-.7-.61,0-1.15.12-1.6.36s-.81.59-1.05,1.06-.37,1.05-.37,1.75v4.91h-1.73v-9.54h1.66v2.57l-.27-.68c.31-.62.79-1.11,1.44-1.46.65-.35,1.4-.52,2.27-.52Z"/>
    <path class="cls-2" d="m179.37,367.58c-.92,0-1.75-.2-2.48-.61s-1.3-.98-1.72-1.71c-.42-.73-.63-1.58-.63-2.56s.21-1.82.63-2.55c.42-.73.99-1.29,1.72-1.7.73-.41,1.55-.61,2.48-.61.8,0,1.53.18,2.18.54.65.36,1.17.9,1.56,1.62.39.72.58,1.62.58,2.7s-.19,1.98-.57,2.7c-.38.72-.89,1.26-1.54,1.63-.65.37-1.39.55-2.21.55Zm.14-1.51c.6,0,1.14-.14,1.63-.41.49-.28.87-.67,1.15-1.18.28-.51.42-1.1.42-1.77s-.14-1.28-.42-1.77-.67-.88-1.15-1.16c-.49-.28-1.03-.41-1.63-.41s-1.16.14-1.64.41c-.48.28-.86.66-1.15,1.16s-.43,1.09-.43,1.77.14,1.26.43,1.77c.29.51.67.9,1.15,1.18.48.28,1.03.41,1.64.41Zm3.26,1.4v-2.57l.11-2.21-.18-2.21v-6.35h1.73v13.36h-1.66Z"/>
    <path class="cls-2" d="m190.49,367.58c-.71,0-1.33-.12-1.86-.36-.53-.24-.94-.57-1.23-1s-.43-.91-.43-1.45.12-.98.37-1.4c.25-.42.65-.76,1.21-1.01s1.31-.38,2.26-.38h3.02v1.24h-2.95c-.86,0-1.45.14-1.75.43-.3.29-.45.64-.45,1.04,0,.47.19.84.56,1.12.37.28.89.42,1.55.42s1.22-.14,1.7-.43.84-.71,1.05-1.26l.34,1.19c-.23.56-.63,1.01-1.21,1.34s-1.3.5-2.18.5Zm3.13-.11v-2.02l-.09-.38v-3.44c0-.73-.21-1.3-.64-1.7-.43-.4-1.06-.6-1.92-.6-.56,0-1.12.09-1.66.28-.54.19-1,.44-1.37.75l-.72-1.3c.49-.4,1.08-.7,1.77-.91.69-.21,1.41-.31,2.17-.31,1.31,0,2.32.32,3.02.95.71.64,1.06,1.61,1.06,2.92v5.76h-1.64Z"/>
    <path class="cls-2" d="m198.47,367.47v-9.54h1.66v2.59l-.16-.65c.26-.66.71-1.16,1.33-1.51.62-.35,1.39-.52,2.3-.52v1.67c-.07-.01-.14-.02-.21-.02h-.19c-.92,0-1.66.28-2.2.83-.54.55-.81,1.35-.81,2.39v4.75h-1.73Z"/>
    <path class="cls-2" d="m209.79,367.58c-.92,0-1.75-.2-2.48-.61s-1.3-.98-1.72-1.71c-.42-.73-.63-1.58-.63-2.56s.21-1.82.63-2.55c.42-.73.99-1.29,1.72-1.7.73-.41,1.55-.61,2.48-.61.8,0,1.53.18,2.18.54.65.36,1.17.9,1.56,1.62.39.72.58,1.62.58,2.7s-.19,1.98-.57,2.7c-.38.72-.89,1.26-1.54,1.63-.65.37-1.39.55-2.21.55Zm.14-1.51c.6,0,1.14-.14,1.63-.41.49-.28.87-.67,1.15-1.18.28-.51.42-1.1.42-1.77s-.14-1.28-.42-1.77-.67-.88-1.15-1.16c-.49-.28-1.03-.41-1.63-.41s-1.16.14-1.64.41c-.48.28-.86.66-1.15,1.16s-.43,1.09-.43,1.77.14,1.26.43,1.77c.29.51.67.9,1.15,1.18.48.28,1.03.41,1.64.41Zm3.26,1.4v-2.57l.11-2.21-.18-2.21v-6.35h1.73v13.36h-1.66Z"/>
    <path class="cls-2" d="m220.86,367.58c-.79,0-1.55-.11-2.26-.32-.71-.22-1.28-.48-1.68-.79l.72-1.37c.41.28.91.51,1.51.7.6.19,1.21.29,1.84.29.8,0,1.38-.11,1.74-.34.35-.23.53-.55.53-.95,0-.3-.11-.53-.32-.7-.22-.17-.5-.29-.85-.38s-.75-.16-1.18-.23c-.43-.07-.86-.15-1.3-.25-.43-.1-.83-.25-1.19-.43-.36-.19-.65-.44-.86-.77s-.32-.77-.32-1.32.16-1.08.49-1.51c.32-.43.78-.76,1.38-1,.59-.23,1.3-.35,2.11-.35.62,0,1.26.08,1.9.22.64.15,1.17.36,1.57.64l-.74,1.37c-.43-.29-.88-.49-1.35-.59-.47-.11-.94-.16-1.4-.16-.76,0-1.32.12-1.69.37s-.56.56-.56.95c0,.32.11.57.33.75s.51.31.86.4c.35.1.75.18,1.18.24.43.07.86.15,1.3.25.43.1.82.24,1.18.42.35.18.64.43.86.76.22.32.33.76.33,1.3,0,.58-.17,1.07-.5,1.49-.34.42-.81.75-1.42.98-.61.23-1.34.35-2.2.35Z"/>
    <path class="cls-2" d="m3.67,389.18c-.71,0-1.33-.12-1.86-.36-.53-.24-.94-.57-1.23-1s-.43-.91-.43-1.45.12-.98.37-1.4c.25-.42.65-.76,1.21-1.01s1.31-.38,2.26-.38h3.02v1.24h-2.95c-.86,0-1.45.14-1.75.43-.3.29-.45.64-.45,1.04,0,.47.19.84.56,1.12.37.28.89.42,1.55.42s1.22-.14,1.7-.43.84-.71,1.05-1.26l.34,1.19c-.23.56-.63,1.01-1.21,1.34s-1.3.5-2.18.5Zm3.13-.11v-2.02l-.09-.38v-3.44c0-.73-.21-1.3-.64-1.7-.43-.4-1.06-.6-1.92-.6-.56,0-1.12.09-1.66.28-.54.19-1,.44-1.37.75l-.72-1.3c.49-.4,1.08-.7,1.77-.91.69-.21,1.41-.31,2.17-.31,1.31,0,2.32.32,3.02.95.71.64,1.06,1.61,1.06,2.92v5.76h-1.64Z"/>
    <path class="cls-2" d="m16.74,379.44c.78,0,1.47.15,2.06.45.59.3,1.06.76,1.4,1.37.34.61.5,1.39.5,2.32v5.49h-1.73v-5.29c0-.92-.23-1.62-.67-2.09-.45-.47-1.08-.7-1.9-.7-.61,0-1.15.12-1.6.36s-.81.59-1.05,1.06-.37,1.05-.37,1.75v4.91h-1.73v-9.54h1.66v2.57l-.27-.68c.31-.62.79-1.11,1.44-1.46.65-.35,1.4-.52,2.27-.52Z"/>
    <path class="cls-2" d="m27.85,389.18c-.92,0-1.75-.2-2.48-.61s-1.3-.98-1.72-1.71c-.42-.73-.63-1.58-.63-2.56s.21-1.82.63-2.55c.42-.73.99-1.29,1.72-1.7.73-.41,1.55-.61,2.48-.61.8,0,1.53.18,2.18.54.65.36,1.17.9,1.56,1.62.39.72.58,1.62.58,2.7s-.19,1.98-.57,2.7c-.38.72-.89,1.26-1.54,1.63-.65.37-1.39.55-2.21.55Zm.14-1.51c.6,0,1.14-.14,1.63-.41.49-.28.87-.67,1.15-1.18.28-.51.42-1.1.42-1.77s-.14-1.28-.42-1.77-.67-.88-1.15-1.16c-.49-.28-1.03-.41-1.63-.41s-1.16.14-1.64.41c-.48.28-.86.66-1.15,1.16s-.43,1.09-.43,1.77.14,1.26.43,1.77c.29.51.67.9,1.15,1.18.48.28,1.03.41,1.64.41Zm3.26,1.4v-2.57l.11-2.21-.18-2.21v-6.35h1.73v13.36h-1.66Z"/>
    <path class="cls-2" d="m41.02,392.57v-13.03h1.66v2.57l-.11,2.21.18,2.21v6.03h-1.73Zm5.06-3.38c-.79,0-1.52-.18-2.17-.55-.65-.37-1.18-.91-1.57-1.63-.39-.72-.58-1.62-.58-2.7s.19-1.98.57-2.7c.38-.72.89-1.26,1.55-1.62.65-.36,1.39-.54,2.2-.54.94,0,1.76.2,2.48.61.72.41,1.29.97,1.71,1.7.42.73.63,1.58.63,2.55s-.21,1.82-.63,2.56c-.42.73-.99,1.3-1.71,1.71-.72.41-1.55.61-2.48.61Zm-.14-1.51c.61,0,1.16-.14,1.65-.41.49-.28.87-.67,1.15-1.18.28-.51.42-1.1.42-1.77s-.14-1.28-.42-1.77c-.28-.5-.67-.88-1.15-1.16-.49-.28-1.04-.41-1.65-.41s-1.14.14-1.63.41c-.49.28-.87.66-1.15,1.16-.28.5-.42,1.09-.42,1.77s.14,1.26.42,1.77c.28.51.67.9,1.15,1.18.49.28,1.03.41,1.63.41Z"/>
    <path class="cls-2" d="m53.3,389.07v-9.54h1.66v2.59l-.16-.65c.26-.66.71-1.16,1.33-1.51.62-.35,1.39-.52,2.3-.52v1.67c-.07-.01-.14-.02-.21-.02h-.19c-.92,0-1.66.28-2.2.83-.54.55-.81,1.35-.81,2.39v4.75h-1.73Z"/>
    <path class="cls-2" d="m63.47,389.18c-.71,0-1.33-.12-1.86-.36-.53-.24-.94-.57-1.23-1s-.43-.91-.43-1.45.12-.98.37-1.4c.25-.42.65-.76,1.21-1.01s1.31-.38,2.26-.38h3.02v1.24h-2.95c-.86,0-1.45.14-1.75.43-.3.29-.45.64-.45,1.04,0,.47.19.84.56,1.12.37.28.89.42,1.55.42s1.22-.14,1.7-.43.84-.71,1.05-1.26l.34,1.19c-.23.56-.63,1.01-1.21,1.34s-1.3.5-2.18.5Zm3.13-.11v-2.02l-.09-.38v-3.44c0-.73-.21-1.3-.64-1.7-.43-.4-1.06-.6-1.92-.6-.56,0-1.12.09-1.66.28-.54.19-1,.44-1.37.75l-.72-1.3c.49-.4,1.08-.7,1.77-.91.69-.21,1.41-.31,2.17-.31,1.31,0,2.32.32,3.02.95.71.64,1.06,1.61,1.06,2.92v5.76h-1.64Z"/>
    <path class="cls-2" d="m75.6,389.18c-.97,0-1.84-.21-2.6-.63-.76-.42-1.36-1-1.79-1.73-.43-.73-.65-1.57-.65-2.52s.22-1.79.65-2.52c.43-.73,1.03-1.3,1.79-1.72s1.63-.62,2.6-.62c.86,0,1.63.17,2.31.51.68.34,1.2.85,1.58,1.52l-1.31.85c-.31-.47-.69-.81-1.14-1.04-.45-.22-.93-.33-1.45-.33-.62,0-1.18.14-1.67.41-.49.28-.88.66-1.17,1.16s-.43,1.09-.43,1.77.14,1.28.43,1.78.68.89,1.17,1.17c.49.28,1.05.41,1.67.41.52,0,1-.11,1.45-.33.45-.22.83-.57,1.14-1.04l1.31.83c-.37.66-.9,1.17-1.58,1.52-.68.35-1.45.53-2.31.53Z"/>
    <path class="cls-2" d="m80.35,380.96v-1.42h6.08v1.42h-6.08Zm4.64,8.23c-.96,0-1.7-.26-2.23-.77-.53-.52-.79-1.25-.79-2.21v-8.75h1.73v8.68c0,.52.13.91.39,1.19.26.28.63.41,1.11.41.54,0,.99-.15,1.35-.45l.54,1.24c-.26.23-.58.4-.94.5-.37.11-.75.16-1.14.16Z"/>
    <path class="cls-2" d="m90.04,377.7c-.34,0-.62-.11-.84-.32-.22-.22-.33-.48-.33-.79s.11-.59.33-.81c.22-.22.5-.32.84-.32s.61.11.84.32.33.47.33.78-.11.6-.32.82c-.22.22-.5.33-.85.33Zm-.86,11.38v-9.54h1.73v9.54h-1.73Z"/>
    <path class="cls-2" d="m98.35,389.18c-.97,0-1.84-.21-2.6-.63-.76-.42-1.36-1-1.79-1.73-.43-.73-.65-1.57-.65-2.52s.22-1.79.65-2.52c.43-.73,1.03-1.3,1.79-1.72s1.63-.62,2.6-.62c.86,0,1.63.17,2.31.51.68.34,1.2.85,1.58,1.52l-1.31.85c-.31-.47-.69-.81-1.14-1.04-.45-.22-.93-.33-1.45-.33-.62,0-1.18.14-1.67.41-.49.28-.88.66-1.17,1.16s-.43,1.09-.43,1.77.14,1.28.43,1.78.68.89,1.17,1.17c.49.28,1.05.41,1.67.41.52,0,1-.11,1.45-.33.45-.22.83-.57,1.14-1.04l1.31.83c-.37.66-.9,1.17-1.58,1.52-.68.35-1.45.53-2.31.53Z"/>
    <path class="cls-2" d="m108.72,389.18c-1.02,0-1.92-.21-2.69-.63-.77-.42-1.37-1-1.8-1.73-.43-.73-.64-1.57-.64-2.52s.21-1.79.62-2.52c.41-.73.98-1.3,1.71-1.72s1.54-.62,2.46-.62,1.74.2,2.45.61c.71.41,1.26.98,1.67,1.72.4.74.6,1.6.6,2.58,0,.07,0,.16,0,.25,0,.1-.02.19-.03.27h-8.12v-1.24h7.22l-.7.43c.01-.61-.11-1.16-.38-1.64-.26-.48-.63-.86-1.09-1.12-.46-.27-1-.41-1.61-.41s-1.13.13-1.6.41c-.47.27-.83.65-1.1,1.13-.26.49-.4,1.04-.4,1.67v.29c0,.64.15,1.2.44,1.7.29.5.7.88,1.23,1.16.53.28,1.13.41,1.82.41.56,0,1.08-.1,1.54-.29.46-.19.87-.48,1.21-.86l.95,1.12c-.43.5-.97.89-1.61,1.15-.64.26-1.36.4-2.15.4Z"/>
    <path class="cls-2" d="m118.22,389.18c-.79,0-1.55-.11-2.26-.32-.71-.22-1.28-.48-1.68-.79l.72-1.37c.41.28.91.51,1.51.7.6.19,1.21.29,1.84.29.8,0,1.38-.11,1.74-.34.35-.23.53-.55.53-.95,0-.3-.11-.53-.32-.7-.22-.17-.5-.29-.85-.38s-.75-.16-1.18-.23c-.43-.07-.86-.15-1.3-.25-.43-.1-.83-.25-1.19-.43-.36-.19-.65-.44-.86-.77s-.32-.77-.32-1.32.16-1.08.49-1.51c.32-.43.78-.76,1.38-1,.59-.23,1.3-.35,2.11-.35.62,0,1.26.08,1.9.22.64.15,1.17.36,1.57.64l-.74,1.37c-.43-.29-.88-.49-1.35-.59-.47-.11-.94-.16-1.4-.16-.76,0-1.32.12-1.69.37s-.56.56-.56.95c0,.32.11.57.33.75s.51.31.86.4c.35.1.75.18,1.18.24.43.07.86.15,1.3.25.43.1.82.24,1.18.42.35.18.64.43.86.76.22.32.33.76.33,1.3,0,.58-.17,1.07-.5,1.49-.34.42-.81.75-1.42.98-.61.23-1.34.35-2.2.35Z"/>
  </g>
  <g>
    <g>
      <circle class="cls-1" cx="299.23" cy="476.15" r="38.53"/>
      <circle class="cls-1" cx="397.84" cy="476.15" r="38.53"/>
      <circle class="cls-1" cx="496.46" cy="476.15" r="38.53"/>
      <circle class="cls-1" cx="595.08" cy="476.15" r="38.53"/>
    </g>
    <g>
      <circle class="cls-1" cx="299.23" cy="578.24" r="38.53"/>
      <circle class="cls-1" cx="397.84" cy="578.24" r="38.53"/>
      <circle class="cls-1" cx="496.46" cy="578.24" r="38.53"/>
      <circle class="cls-1" cx="595.08" cy="578.24" r="38.53"/>
    </g>
  </g>
  <polygon class="cls-1" points="316.78 1.5 283.93 1.5 260.7 23.47 260.7 257.58 283.93 279.56 316.78 279.56 340 257.58 340 23.47 316.78 1.5"/>
  <polygon class="cls-1" points="413.35 1.5 380.51 1.5 357.28 23.47 357.28 257.58 380.51 279.56 413.35 279.56 436.58 257.58 436.58 23.47 413.35 1.5"/>
  <polygon class="cls-1" points="512.64 1.5 479.8 1.5 456.57 23.47 456.57 257.58 479.8 279.56 512.64 279.56 535.87 257.58 535.87 23.47 512.64 1.5"/>
  <polygon class="cls-1" points="610.38 2.41 577.53 2.41 554.31 24.38 554.31 258.49 577.53 280.46 610.38 280.46 633.61 258.49 633.61 24.38 610.38 2.41"/>
  <g>
    <path class="cls-2" d="m305.81,184.38c0,.96-.16,1.85-.49,2.67-.32.82-.78,1.53-1.36,2.13s-1.26,1.07-2.04,1.4c-.78.34-1.63.5-2.56.5s-1.78-.17-2.56-.5c-.78-.34-1.46-.8-2.04-1.4-.58-.6-1.03-1.31-1.36-2.12-.32-.82-.49-1.71-.49-2.68s.16-1.85.48-2.66c.32-.82.77-1.52,1.35-2.12.58-.6,1.27-1.06,2.05-1.4.79-.33,1.64-.49,2.57-.49s1.79.17,2.57.49c.78.33,1.46.8,2.04,1.4.58.6,1.03,1.31,1.35,2.12.32.82.48,1.7.48,2.66Zm-1.6.02c0-.71-.12-1.36-.36-1.95-.24-.59-.58-1.11-1.02-1.55-.44-.44-.95-.78-1.54-1.03s-1.23-.37-1.93-.37-1.33.12-1.92.37-1.09.59-1.54,1.03-.79.95-1.03,1.55c-.24.59-.36,1.25-.36,1.95s.12,1.34.36,1.94c.24.59.58,1.11,1.03,1.56s.96.79,1.54,1.03c.58.25,1.22.37,1.92.37s1.34-.12,1.93-.37c.59-.25,1.1-.59,1.54-1.03.44-.44.78-.96,1.02-1.56.24-.59.36-1.24.36-1.94Z"/>
    <path class="cls-2" d="m305.78,171.19c0,.82-.15,1.53-.45,2.15s-.76,1.1-1.38,1.44-1.4.51-2.33.51h-5.49v-1.73h5.29c.94,0,1.64-.23,2.11-.68.47-.45.7-1.08.7-1.9,0-.6-.12-1.12-.37-1.57-.25-.44-.61-.79-1.08-1.03-.47-.24-1.05-.36-1.72-.36h-4.93v-1.73h9.54v1.64h-2.57l.68-.27c.64.31,1.13.78,1.48,1.4.35.62.52,1.33.52,2.11Z"/>
    <path class="cls-2" d="m305.78,159.74c0,.96-.26,1.7-.77,2.23-.52.53-1.25.79-2.21.79h-8.75v-1.73h8.68c.52,0,.91-.13,1.19-.39.28-.26.41-.63.41-1.11,0-.54-.15-.99-.45-1.35l1.24-.54c.23.26.4.58.5.94.11.37.16.75.16,1.14Zm-8.23,4.64h-1.42v-6.08h1.42v6.08Z"/>
    <path class="cls-2" d="m305.78,151.41c0,.97-.21,1.84-.63,2.6-.42.76-1,1.36-1.73,1.79-.73.43-1.57.65-2.52.65s-1.79-.22-2.52-.65c-.73-.43-1.3-1.03-1.72-1.79s-.62-1.63-.62-2.6c0-.86.17-1.63.51-2.31.34-.68.85-1.2,1.52-1.58l.85,1.31c-.47.31-.81.69-1.04,1.14-.22.45-.33.93-.33,1.45,0,.62.14,1.18.41,1.67.28.49.66.88,1.16,1.17s1.09.43,1.77.43,1.28-.14,1.78-.43.89-.68,1.17-1.17c.28-.49.41-1.05.41-1.67,0-.52-.11-1-.33-1.45-.22-.45-.57-.83-1.04-1.14l.83-1.31c.66.37,1.17.9,1.52,1.58.35.68.53,1.45.53,2.31Z"/>
    <path class="cls-2" d="m305.78,141.2c0,.95-.21,1.8-.63,2.55-.42.75-1,1.34-1.74,1.77-.74.43-1.58.65-2.51.65s-1.79-.22-2.51-.65c-.73-.43-1.3-1.02-1.72-1.76s-.63-1.6-.63-2.56.21-1.8.62-2.55.99-1.34,1.72-1.76c.73-.43,1.57-.64,2.52-.64s1.79.21,2.52.64c.73.43,1.31,1.01,1.73,1.76.42.75.63,1.6.63,2.55Zm-1.51,0c0-.61-.14-1.16-.41-1.65-.28-.49-.67-.87-1.18-1.14-.51-.28-1.1-.41-1.77-.41s-1.28.14-1.77.41c-.5.28-.88.66-1.16,1.14-.28.49-.41,1.04-.41,1.65s.14,1.16.41,1.64c.28.48.66.86,1.16,1.15s1.09.43,1.77.43,1.26-.14,1.77-.43c.51-.29.9-.67,1.18-1.15.28-.48.41-1.03.41-1.64Z"/>
    <path class="cls-2" d="m296.04,121.92c0-.77.15-1.45.45-2.03s.76-1.05,1.37-1.38c.61-.33,1.39-.5,2.32-.5h5.49v1.73h-5.29c-.92,0-1.62.22-2.09.65s-.7,1.04-.7,1.82c0,.58.12,1.08.36,1.51s.59.77,1.06,1,1.05.35,1.75.35h4.91v1.73h-5.29c-.92,0-1.62.21-2.09.64-.47.43-.7,1.04-.7,1.83,0,.56.12,1.06.36,1.49s.59.77,1.06,1.01c.47.24,1.05.36,1.75.36h4.91v1.73h-9.54v-1.66h2.54l-.65.27c-.62-.3-1.11-.76-1.46-1.39-.35-.62-.52-1.35-.52-2.18,0-.91.22-1.7.67-2.36.45-.66,1.13-1.09,2.04-1.3l-.29.7c-.73-.29-1.32-.79-1.76-1.51-.44-.72-.67-1.56-.67-2.52Z"/>
    <path class="cls-2" d="m305.78,110.58c0,1.02-.21,1.92-.63,2.69-.42.77-1,1.37-1.73,1.8-.73.43-1.57.64-2.52.64s-1.79-.21-2.52-.62c-.73-.41-1.3-.98-1.72-1.71s-.62-1.54-.62-2.46.2-1.74.61-2.45c.41-.71.98-1.26,1.72-1.67.74-.4,1.6-.6,2.58-.6.07,0,.16,0,.25,0,.1,0,.19.02.27.03v8.12h-1.24v-7.22l.43.7c-.61-.01-1.16.11-1.64.38-.48.26-.86.63-1.12,1.09-.27.46-.41,1-.41,1.61s.13,1.13.41,1.6c.27.47.65.83,1.13,1.1.49.26,1.04.4,1.67.4h.29c.64,0,1.2-.15,1.7-.44.5-.29.88-.7,1.16-1.23.28-.53.41-1.13.41-1.82,0-.56-.1-1.08-.29-1.54-.19-.46-.48-.87-.86-1.21l1.12-.95c.5.43.89.97,1.15,1.61.26.64.4,1.36.4,2.15Z"/>
    <path class="cls-2" d="m305.67,100.63l-12.6-5.71v-1.78l12.6-5.72v1.89l-11.59,5.09v-.72l11.59,5.09v1.85Zm-3.15-2.43l-1.44-.49v-7.09l1.44-.52v8.1Z"/>
  </g>
  <g>
    <path class="cls-2" d="m402.39,184.82c0,.96-.16,1.85-.49,2.67-.32.82-.78,1.53-1.36,2.13s-1.26,1.07-2.04,1.4c-.78.34-1.63.5-2.56.5s-1.78-.17-2.56-.5c-.78-.34-1.46-.8-2.04-1.4-.58-.6-1.03-1.31-1.36-2.12-.32-.82-.49-1.71-.49-2.68s.16-1.85.48-2.66c.32-.82.77-1.52,1.35-2.12.58-.6,1.27-1.06,2.05-1.4.79-.33,1.64-.49,2.57-.49s1.79.17,2.57.49c.78.33,1.46.8,2.04,1.4.58.6,1.03,1.31,1.35,2.12.32.82.48,1.7.48,2.66Zm-1.6.02c0-.71-.12-1.36-.36-1.95-.24-.59-.58-1.11-1.02-1.55-.44-.44-.95-.78-1.54-1.03s-1.23-.37-1.93-.37-1.33.12-1.92.37-1.09.59-1.54,1.03-.79.95-1.03,1.55c-.24.59-.36,1.25-.36,1.95s.12,1.34.36,1.94c.24.59.58,1.11,1.03,1.56s.96.79,1.54,1.03c.58.25,1.22.37,1.92.37s1.34-.12,1.93-.37c.59-.25,1.1-.59,1.54-1.03.44-.44.78-.96,1.02-1.56.24-.59.36-1.24.36-1.94Z"/>
    <path class="cls-2" d="m402.36,171.62c0,.82-.15,1.53-.45,2.15s-.76,1.1-1.38,1.44-1.4.51-2.33.51h-5.49v-1.73h5.29c.94,0,1.64-.23,2.11-.68.47-.45.7-1.08.7-1.9,0-.6-.12-1.12-.37-1.57-.25-.44-.61-.79-1.08-1.03-.47-.24-1.05-.36-1.72-.36h-4.93v-1.73h9.54v1.64h-2.57l.68-.27c.64.31,1.13.78,1.48,1.4.35.62.52,1.33.52,2.11Z"/>
    <path class="cls-2" d="m402.36,160.17c0,.96-.26,1.7-.77,2.23-.52.53-1.25.79-2.21.79h-8.75v-1.73h8.68c.52,0,.91-.13,1.19-.39.28-.26.41-.63.41-1.11,0-.54-.15-.99-.45-1.35l1.24-.54c.23.26.4.58.5.94.11.37.16.75.16,1.14Zm-8.23,4.64h-1.42v-6.08h1.42v6.08Z"/>
    <path class="cls-2" d="m402.36,151.84c0,.97-.21,1.84-.63,2.6-.42.76-1,1.36-1.73,1.79-.73.43-1.57.65-2.52.65s-1.79-.22-2.52-.65c-.73-.43-1.3-1.03-1.72-1.79s-.62-1.63-.62-2.6c0-.86.17-1.63.51-2.31.34-.68.85-1.2,1.52-1.58l.85,1.31c-.47.31-.81.69-1.04,1.14-.22.45-.33.93-.33,1.45,0,.62.14,1.18.41,1.67.28.49.66.88,1.16,1.17s1.09.43,1.77.43,1.28-.14,1.78-.43.89-.68,1.17-1.17c.28-.49.41-1.05.41-1.67,0-.52-.11-1-.33-1.45-.22-.45-.57-.83-1.04-1.14l.83-1.31c.66.37,1.17.9,1.52,1.58.35.68.53,1.45.53,2.31Z"/>
    <path class="cls-2" d="m402.36,141.63c0,.95-.21,1.8-.63,2.55-.42.75-1,1.34-1.74,1.77-.74.43-1.58.65-2.51.65s-1.79-.22-2.51-.65c-.73-.43-1.3-1.02-1.72-1.76s-.63-1.6-.63-2.56.21-1.8.62-2.55.99-1.34,1.72-1.76c.73-.43,1.57-.64,2.52-.64s1.79.21,2.52.64c.73.43,1.31,1.01,1.73,1.76.42.75.63,1.6.63,2.55Zm-1.51,0c0-.61-.14-1.16-.41-1.65-.28-.49-.67-.87-1.18-1.14-.51-.28-1.1-.41-1.77-.41s-1.28.14-1.77.41c-.5.28-.88.66-1.16,1.14-.28.49-.41,1.04-.41,1.65s.14,1.16.41,1.64c.28.48.66.86,1.16,1.15s1.09.43,1.77.43,1.26-.14,1.77-.43c.51-.29.9-.67,1.18-1.15.28-.48.41-1.03.41-1.64Z"/>
    <path class="cls-2" d="m392.62,122.36c0-.77.15-1.45.45-2.03s.76-1.05,1.37-1.38c.61-.33,1.39-.5,2.32-.5h5.49v1.73h-5.29c-.92,0-1.62.22-2.09.65s-.7,1.04-.7,1.82c0,.58.12,1.08.36,1.51s.59.77,1.06,1,1.05.35,1.75.35h4.91v1.73h-5.29c-.92,0-1.62.21-2.09.64-.47.43-.7,1.04-.7,1.83,0,.56.12,1.06.36,1.49s.59.77,1.06,1.01c.47.24,1.05.36,1.75.36h4.91v1.73h-9.54v-1.66h2.54l-.65.27c-.62-.3-1.11-.76-1.46-1.39-.35-.62-.52-1.35-.52-2.18,0-.91.22-1.7.67-2.36.45-.66,1.13-1.09,2.04-1.3l-.29.7c-.73-.29-1.32-.79-1.76-1.51-.44-.72-.67-1.56-.67-2.52Z"/>
    <path class="cls-2" d="m402.36,111.02c0,1.02-.21,1.92-.63,2.69-.42.77-1,1.37-1.73,1.8-.73.43-1.57.64-2.52.64s-1.79-.21-2.52-.62c-.73-.41-1.3-.98-1.72-1.71s-.62-1.54-.62-2.46.2-1.74.61-2.45c.41-.71.98-1.26,1.72-1.67.74-.4,1.6-.6,2.58-.6.07,0,.16,0,.25,0,.1,0,.19.02.27.03v8.12h-1.24v-7.22l.43.7c-.61-.01-1.16.11-1.64.38-.48.26-.86.63-1.12,1.09-.27.46-.41,1-.41,1.61s.13,1.13.41,1.6c.27.47.65.83,1.13,1.1.49.26,1.04.4,1.67.4h.29c.64,0,1.2-.15,1.7-.44.5-.29.88-.7,1.16-1.23.28-.53.41-1.13.41-1.82,0-.56-.1-1.08-.29-1.54-.19-.46-.48-.87-.86-1.21l1.12-.95c.5.43.89.97,1.15,1.61.26.64.4,1.36.4,2.15Z"/>
    <path class="cls-2" d="m402.25,99.16h-12.6v-5.65c0-1.45.29-2.57.87-3.35.58-.78,1.38-1.17,2.38-1.17.68,0,1.26.15,1.73.46s.83.72,1.08,1.23c.25.52.38,1.07.38,1.67l-.54-.32c0-.72.13-1.36.38-1.91.25-.55.62-.99,1.11-1.31.49-.32,1.09-.49,1.81-.49,1.08,0,1.92.41,2.51,1.21.59.81.89,2.01.89,3.61v6.01Zm-1.46-1.8v-4.14c0-1-.17-1.76-.5-2.29-.34-.53-.86-.79-1.58-.79s-1.27.26-1.6.79c-.33.53-.5,1.29-.5,2.29v4.3h-1.46v-3.85c0-.91-.17-1.62-.5-2.12s-.84-.76-1.51-.76-1.18.25-1.51.76-.5,1.21-.5,2.12v3.69h9.68Z"/>
  </g>
  <g>
    <path class="cls-2" d="m501.68,184.2c0,.96-.16,1.85-.49,2.67-.32.82-.78,1.53-1.36,2.13s-1.26,1.07-2.04,1.4c-.78.34-1.63.5-2.56.5s-1.78-.17-2.56-.5c-.78-.34-1.46-.8-2.04-1.4-.58-.6-1.03-1.31-1.36-2.12-.32-.82-.49-1.71-.49-2.68s.16-1.85.48-2.66c.32-.82.77-1.52,1.35-2.12.58-.6,1.27-1.06,2.05-1.4.79-.33,1.64-.49,2.57-.49s1.79.17,2.57.49c.78.33,1.46.8,2.04,1.4.58.6,1.03,1.31,1.35,2.12.32.82.48,1.7.48,2.66Zm-1.6.02c0-.71-.12-1.36-.36-1.95-.24-.59-.58-1.11-1.02-1.55-.44-.44-.95-.78-1.54-1.03s-1.23-.37-1.93-.37-1.33.12-1.92.37-1.09.59-1.54,1.03-.79.95-1.03,1.55c-.24.59-.36,1.25-.36,1.95s.12,1.34.36,1.94c.24.59.58,1.11,1.03,1.56s.96.79,1.54,1.03c.58.25,1.22.37,1.92.37s1.34-.12,1.93-.37c.59-.25,1.1-.59,1.54-1.03.44-.44.78-.96,1.02-1.56.24-.59.36-1.24.36-1.94Z"/>
    <path class="cls-2" d="m501.65,171.01c0,.82-.15,1.53-.45,2.15s-.76,1.1-1.38,1.44-1.4.51-2.33.51h-5.49v-1.73h5.29c.94,0,1.64-.23,2.11-.68.47-.45.7-1.08.7-1.9,0-.6-.12-1.12-.37-1.57-.25-.44-.61-.79-1.08-1.03-.47-.24-1.05-.36-1.72-.36h-4.93v-1.73h9.54v1.64h-2.57l.68-.27c.64.31,1.13.78,1.48,1.4.35.62.52,1.33.52,2.11Z"/>
    <path class="cls-2" d="m501.65,159.56c0,.96-.26,1.7-.77,2.23-.52.53-1.25.79-2.21.79h-8.75v-1.73h8.68c.52,0,.91-.13,1.19-.39.28-.26.41-.63.41-1.11,0-.54-.15-.99-.45-1.35l1.24-.54c.23.26.4.58.5.94.11.37.16.75.16,1.14Zm-8.23,4.64h-1.42v-6.08h1.42v6.08Z"/>
    <path class="cls-2" d="m501.65,151.23c0,.97-.21,1.84-.63,2.6-.42.76-1,1.36-1.73,1.79-.73.43-1.57.65-2.52.65s-1.79-.22-2.52-.65c-.73-.43-1.3-1.03-1.72-1.79s-.62-1.63-.62-2.6c0-.86.17-1.63.51-2.31.34-.68.85-1.2,1.52-1.58l.85,1.31c-.47.31-.81.69-1.04,1.14-.22.45-.33.93-.33,1.45,0,.62.14,1.18.41,1.67.28.49.66.88,1.16,1.17s1.09.43,1.77.43,1.28-.14,1.78-.43.89-.68,1.17-1.17c.28-.49.41-1.05.41-1.67,0-.52-.11-1-.33-1.45-.22-.45-.57-.83-1.04-1.14l.83-1.31c.66.37,1.17.9,1.52,1.58.35.68.53,1.45.53,2.31Z"/>
    <path class="cls-2" d="m501.65,141.02c0,.95-.21,1.8-.63,2.55-.42.75-1,1.34-1.74,1.77-.74.43-1.58.65-2.51.65s-1.79-.22-2.51-.65c-.73-.43-1.3-1.02-1.72-1.76s-.63-1.6-.63-2.56.21-1.8.62-2.55.99-1.34,1.72-1.76c.73-.43,1.57-.64,2.52-.64s1.79.21,2.52.64c.73.43,1.31,1.01,1.73,1.76.42.75.63,1.6.63,2.55Zm-1.51,0c0-.61-.14-1.16-.41-1.65-.28-.49-.67-.87-1.18-1.14-.51-.28-1.1-.41-1.77-.41s-1.28.14-1.77.41c-.5.28-.88.66-1.16,1.14-.28.49-.41,1.04-.41,1.65s.14,1.16.41,1.64c.28.48.66.86,1.16,1.15s1.09.43,1.77.43,1.26-.14,1.77-.43c.51-.29.9-.67,1.18-1.15.28-.48.41-1.03.41-1.64Z"/>
    <path class="cls-2" d="m491.91,121.74c0-.77.15-1.45.45-2.03s.76-1.05,1.37-1.38c.61-.33,1.39-.5,2.32-.5h5.49v1.73h-5.29c-.92,0-1.62.22-2.09.65s-.7,1.04-.7,1.82c0,.58.12,1.08.36,1.51s.59.77,1.06,1,1.05.35,1.75.35h4.91v1.73h-5.29c-.92,0-1.62.21-2.09.64-.47.43-.7,1.04-.7,1.83,0,.56.12,1.06.36,1.49s.59.77,1.06,1.01c.47.24,1.05.36,1.75.36h4.91v1.73h-9.54v-1.66h2.54l-.65.27c-.62-.3-1.11-.76-1.46-1.39-.35-.62-.52-1.35-.52-2.18,0-.91.22-1.7.67-2.36.45-.66,1.13-1.09,2.04-1.3l-.29.7c-.73-.29-1.32-.79-1.76-1.51-.44-.72-.67-1.56-.67-2.52Z"/>
    <path class="cls-2" d="m501.65,110.4c0,1.02-.21,1.92-.63,2.69-.42.77-1,1.37-1.73,1.8-.73.43-1.57.64-2.52.64s-1.79-.21-2.52-.62c-.73-.41-1.3-.98-1.72-1.71s-.62-1.54-.62-2.46.2-1.74.61-2.45c.41-.71.98-1.26,1.72-1.67.74-.4,1.6-.6,2.58-.6.07,0,.16,0,.25,0,.1,0,.19.02.27.03v8.12h-1.24v-7.22l.43.7c-.61-.01-1.16.11-1.64.38-.48.26-.86.63-1.12,1.09-.27.46-.41,1-.41,1.61s.13,1.13.41,1.6c.27.47.65.83,1.13,1.1.49.26,1.04.4,1.67.4h.29c.64,0,1.2-.15,1.7-.44.5-.29.88-.7,1.16-1.23.28-.53.41-1.13.41-1.82,0-.56-.1-1.08-.29-1.54-.19-.46-.48-.87-.86-1.21l1.12-.95c.5.43.89.97,1.15,1.61.26.64.4,1.36.4,2.15Z"/>
    <path class="cls-2" d="m501.68,92.91c0,.96-.16,1.84-.48,2.65-.32.81-.77,1.51-1.35,2.11-.58.59-1.26,1.06-2.04,1.4-.78.34-1.64.5-2.57.5s-1.79-.17-2.57-.5c-.78-.34-1.46-.8-2.04-1.4s-1.03-1.31-1.35-2.12c-.32-.81-.48-1.69-.48-2.65s.17-1.87.5-2.69.82-1.52,1.47-2.1l1.13,1.17c-.5.48-.88,1.02-1.12,1.62-.25.6-.37,1.24-.37,1.93s.12,1.36.36,1.97c.24.61.58,1.13,1.01,1.58.43.44.95.79,1.54,1.03.59.25,1.24.37,1.94.37s1.34-.12,1.93-.37c.59-.25,1.11-.59,1.54-1.03.43-.44.77-.97,1.01-1.58.24-.61.36-1.26.36-1.97s-.12-1.33-.37-1.93-.63-1.14-1.14-1.62l1.13-1.17c.65.58,1.14,1.28,1.48,2.1.34.82.5,1.73.5,2.71Z"/>
  </g>
  <g>
    <path class="cls-2" d="m599.42,186.06c0,.96-.16,1.85-.49,2.67-.32.82-.78,1.53-1.36,2.13s-1.26,1.07-2.04,1.4c-.78.34-1.63.5-2.56.5s-1.78-.17-2.56-.5c-.78-.34-1.46-.8-2.04-1.4-.58-.6-1.03-1.31-1.36-2.12-.32-.82-.49-1.71-.49-2.68s.16-1.85.48-2.66c.32-.82.77-1.52,1.35-2.12.58-.6,1.27-1.06,2.05-1.4.79-.33,1.64-.49,2.57-.49s1.79.17,2.57.49c.78.33,1.46.8,2.04,1.4.58.6,1.03,1.31,1.35,2.12.32.82.48,1.7.48,2.66Zm-1.6.02c0-.71-.12-1.36-.36-1.95-.24-.59-.58-1.11-1.02-1.55-.44-.44-.95-.78-1.54-1.03s-1.23-.37-1.93-.37-1.33.12-1.92.37-1.09.59-1.54,1.03-.79.95-1.03,1.55c-.24.59-.36,1.25-.36,1.95s.12,1.34.36,1.94c.24.59.58,1.11,1.03,1.56s.96.79,1.54,1.03c.58.25,1.22.37,1.92.37s1.34-.12,1.93-.37c.59-.25,1.1-.59,1.54-1.03.44-.44.78-.96,1.02-1.56.24-.59.36-1.24.36-1.94Z"/>
    <path class="cls-2" d="m599.38,172.86c0,.82-.15,1.53-.45,2.15s-.76,1.1-1.38,1.44-1.4.51-2.33.51h-5.49v-1.73h5.29c.94,0,1.64-.23,2.11-.68.47-.45.7-1.08.7-1.9,0-.6-.12-1.12-.37-1.57-.25-.44-.61-.79-1.08-1.03-.47-.24-1.05-.36-1.72-.36h-4.93v-1.73h9.54v1.64h-2.57l.68-.27c.64.31,1.13.78,1.48,1.4.35.62.52,1.33.52,2.11Z"/>
    <path class="cls-2" d="m599.38,161.42c0,.96-.26,1.7-.77,2.23-.52.53-1.25.79-2.21.79h-8.75v-1.73h8.68c.52,0,.91-.13,1.19-.39.28-.26.41-.63.41-1.11,0-.54-.15-.99-.45-1.35l1.24-.54c.23.26.4.58.5.94.11.37.16.75.16,1.14Zm-8.23,4.64h-1.42v-6.08h1.42v6.08Z"/>
    <path class="cls-2" d="m599.38,153.08c0,.97-.21,1.84-.63,2.6-.42.76-1,1.36-1.73,1.79-.73.43-1.57.65-2.52.65s-1.79-.22-2.52-.65c-.73-.43-1.3-1.03-1.72-1.79s-.62-1.63-.62-2.6c0-.86.17-1.63.51-2.31.34-.68.85-1.2,1.52-1.58l.85,1.31c-.47.31-.81.69-1.04,1.14-.22.45-.33.93-.33,1.45,0,.62.14,1.18.41,1.67.28.49.66.88,1.16,1.17s1.09.43,1.77.43,1.28-.14,1.78-.43.89-.68,1.17-1.17c.28-.49.41-1.05.41-1.67,0-.52-.11-1-.33-1.45-.22-.45-.57-.83-1.04-1.14l.83-1.31c.66.37,1.17.9,1.52,1.58.35.68.53,1.45.53,2.31Z"/>
    <path class="cls-2" d="m599.38,142.88c0,.95-.21,1.8-.63,2.55-.42.75-1,1.34-1.74,1.77-.74.43-1.58.65-2.51.65s-1.79-.22-2.51-.65c-.73-.43-1.3-1.02-1.72-1.76s-.63-1.6-.63-2.56.21-1.8.62-2.55.99-1.34,1.72-1.76c.73-.43,1.57-.64,2.52-.64s1.79.21,2.52.64c.73.43,1.31,1.01,1.73,1.76.42.75.63,1.6.63,2.55Zm-1.51,0c0-.61-.14-1.16-.41-1.65-.28-.49-.67-.87-1.18-1.14-.51-.28-1.1-.41-1.77-.41s-1.28.14-1.77.41c-.5.28-.88.66-1.16,1.14-.28.49-.41,1.04-.41,1.65s.14,1.16.41,1.64c.28.48.66.86,1.16,1.15s1.09.43,1.77.43,1.26-.14,1.77-.43c.51-.29.9-.67,1.18-1.15.28-.48.41-1.03.41-1.64Z"/>
    <path class="cls-2" d="m589.65,123.6c0-.77.15-1.45.45-2.03s.76-1.05,1.37-1.38c.61-.33,1.39-.5,2.32-.5h5.49v1.73h-5.29c-.92,0-1.62.22-2.09.65s-.7,1.04-.7,1.82c0,.58.12,1.08.36,1.51s.59.77,1.06,1,1.05.35,1.75.35h4.91v1.73h-5.29c-.92,0-1.62.21-2.09.64-.47.43-.7,1.04-.7,1.83,0,.56.12,1.06.36,1.49s.59.77,1.06,1.01c.47.24,1.05.36,1.75.36h4.91v1.73h-9.54v-1.66h2.54l-.65.27c-.62-.3-1.11-.76-1.46-1.39-.35-.62-.52-1.35-.52-2.18,0-.91.22-1.7.67-2.36.45-.66,1.13-1.09,2.04-1.3l-.29.7c-.73-.29-1.32-.79-1.76-1.51-.44-.72-.67-1.56-.67-2.52Z"/>
    <path class="cls-2" d="m599.38,112.26c0,1.02-.21,1.92-.63,2.69-.42.77-1,1.37-1.73,1.8-.73.43-1.57.64-2.52.64s-1.79-.21-2.52-.62c-.73-.41-1.3-.98-1.72-1.71s-.62-1.54-.62-2.46.2-1.74.61-2.45c.41-.71.98-1.26,1.72-1.67.74-.4,1.6-.6,2.58-.6.07,0,.16,0,.25,0,.1,0,.19.02.27.03v8.12h-1.24v-7.22l.43.7c-.61-.01-1.16.11-1.64.38-.48.26-.86.63-1.12,1.09-.27.46-.41,1-.41,1.61s.13,1.13.41,1.6c.27.47.65.83,1.13,1.1.49.26,1.04.4,1.67.4h.29c.64,0,1.2-.15,1.7-.44.5-.29.88-.7,1.16-1.23.28-.53.41-1.13.41-1.82,0-.56-.1-1.08-.29-1.54-.19-.46-.48-.87-.86-1.21l1.12-.95c.5.43.89.97,1.15,1.61.26.64.4,1.36.4,2.15Z"/>
    <path class="cls-2" d="m599.28,100.4h-12.6v-5.31c0-1.34.26-2.53.79-3.55.53-1.03,1.27-1.82,2.21-2.39s2.05-.85,3.29-.85,2.35.29,3.29.85,1.69,1.37,2.21,2.39.79,2.21.79,3.55v5.31Zm-1.57-1.8v-3.4c0-1.04-.2-1.95-.59-2.71-.4-.76-.95-1.35-1.67-1.77-.71-.42-1.54-.63-2.47-.63s-1.78.21-2.48.63c-.71.42-1.26,1.01-1.66,1.77-.4.76-.59,1.66-.59,2.71v3.4h9.47Z"/>
  </g>
  <g>
    <path class="cls-2" d="m1.13,146.3v-12.6h1.48l5.65,9.52h-.79l5.58-9.52h1.48l.02,12.6h-1.73l-.02-9.88h.41l-4.97,8.35h-.83l-5-8.35h.45v9.88h-1.73Z"/>
    <path class="cls-2" d="m22.09,146.41c-.82,0-1.53-.15-2.15-.45s-1.1-.76-1.44-1.38-.51-1.4-.51-2.33v-5.49h1.73v5.29c0,.94.23,1.64.68,2.11.45.47,1.08.7,1.9.7.6,0,1.12-.12,1.57-.37.44-.25.79-.61,1.03-1.08.24-.47.36-1.05.36-1.72v-4.93h1.73v9.54h-1.64v-2.57l.27.68c-.31.64-.78,1.13-1.4,1.48-.62.35-1.33.52-2.11.52Z"/>
    <path class="cls-2" d="m30.26,146.3v-13.36h1.73v13.36h-1.73Z"/>
    <path class="cls-2" d="m33.91,138.18v-1.42h6.08v1.42h-6.08Zm4.64,8.23c-.96,0-1.7-.26-2.23-.77-.53-.52-.79-1.25-.79-2.21v-8.75h1.73v8.68c0,.52.13.91.39,1.19.26.28.63.41,1.11.41.54,0,.99-.15,1.35-.45l.54,1.24c-.26.23-.58.4-.94.5-.37.11-.75.16-1.14.16Z"/>
    <path class="cls-2" d="m43.6,134.92c-.34,0-.62-.11-.84-.32-.22-.22-.33-.48-.33-.79s.11-.59.33-.81c.22-.22.5-.32.84-.32s.61.11.84.32.33.47.33.78-.11.6-.32.82c-.22.22-.5.33-.85.33Zm-.86,11.38v-9.54h1.73v9.54h-1.73Z"/>
    <path class="cls-2" d="m47.75,149.79v-13.03h1.66v2.57l-.11,2.21.18,2.21v6.03h-1.73Zm5.06-3.38c-.79,0-1.52-.18-2.17-.55-.65-.37-1.18-.91-1.57-1.63-.39-.72-.58-1.62-.58-2.7s.19-1.98.57-2.7c.38-.72.89-1.26,1.55-1.62.65-.36,1.39-.54,2.2-.54.94,0,1.76.2,2.48.61.72.41,1.29.97,1.71,1.7.42.73.63,1.58.63,2.55s-.21,1.82-.63,2.56c-.42.73-.99,1.3-1.71,1.71-.72.41-1.55.61-2.48.61Zm-.14-1.51c.61,0,1.16-.14,1.65-.41.49-.28.87-.67,1.15-1.18.28-.51.42-1.1.42-1.77s-.14-1.28-.42-1.77c-.28-.5-.67-.88-1.15-1.16-.49-.28-1.04-.41-1.65-.41s-1.14.14-1.63.41c-.49.28-.87.66-1.15,1.16-.28.5-.42,1.09-.42,1.77s.14,1.26.42,1.77c.28.51.67.9,1.15,1.18.49.28,1.03.41,1.63.41Z"/>
    <path class="cls-2" d="m60.03,146.3v-13.36h1.73v13.36h-1.73Z"/>
    <path class="cls-2" d="m69.3,146.41c-1.02,0-1.92-.21-2.69-.63-.77-.42-1.37-1-1.8-1.73-.43-.73-.64-1.57-.64-2.52s.21-1.79.62-2.52c.41-.73.98-1.3,1.71-1.72s1.54-.62,2.46-.62,1.74.2,2.45.61c.71.41,1.26.98,1.67,1.72.4.74.6,1.6.6,2.58,0,.07,0,.16,0,.25,0,.1-.02.19-.03.27h-8.12v-1.24h7.22l-.7.43c.01-.61-.11-1.16-.38-1.64-.26-.48-.63-.86-1.09-1.12-.46-.27-1-.41-1.61-.41s-1.13.13-1.6.41c-.47.27-.83.65-1.1,1.13-.26.49-.4,1.04-.4,1.67v.29c0,.64.15,1.2.44,1.7.29.5.7.88,1.23,1.16.53.28,1.13.41,1.82.41.56,0,1.08-.1,1.54-.29.46-.19.87-.48,1.21-.86l.95,1.12c-.43.5-.97.89-1.61,1.15-.64.26-1.36.4-2.15.4Z"/>
    <path class="cls-2" d="m85,146.41c-.95,0-1.8-.21-2.55-.63-.75-.42-1.34-1-1.77-1.74-.43-.74-.65-1.58-.65-2.51s.22-1.79.65-2.51c.43-.73,1.02-1.3,1.76-1.72s1.6-.63,2.56-.63,1.8.21,2.55.62,1.34.99,1.76,1.72c.43.73.64,1.57.64,2.52s-.21,1.79-.64,2.52c-.43.73-1.01,1.31-1.76,1.73-.75.42-1.6.63-2.55.63Zm0-1.51c.61,0,1.16-.14,1.65-.41.49-.28.87-.67,1.14-1.18.28-.51.41-1.1.41-1.77s-.14-1.28-.41-1.77c-.28-.5-.66-.88-1.14-1.16-.49-.28-1.04-.41-1.65-.41s-1.16.14-1.64.41c-.48.28-.86.66-1.15,1.16s-.43,1.09-.43,1.77.14,1.26.43,1.77c.29.51.67.9,1.15,1.18.48.28,1.03.41,1.64.41Z"/>
    <path class="cls-2" d="m96.35,146.41c-.82,0-1.53-.15-2.15-.45s-1.1-.76-1.44-1.38-.51-1.4-.51-2.33v-5.49h1.73v5.29c0,.94.23,1.64.68,2.11.45.47,1.08.7,1.9.7.6,0,1.12-.12,1.57-.37.44-.25.79-.61,1.03-1.08.24-.47.36-1.05.36-1.72v-4.93h1.73v9.54h-1.64v-2.57l.27.68c-.31.64-.78,1.13-1.4,1.48-.62.35-1.33.52-2.11.52Z"/>
    <path class="cls-2" d="m103.16,138.18v-1.42h6.08v1.42h-6.08Zm4.64,8.23c-.96,0-1.7-.26-2.23-.77-.53-.52-.79-1.25-.79-2.21v-8.75h1.73v8.68c0,.52.13.91.39,1.19.26.28.63.41,1.11.41.54,0,.99-.15,1.35-.45l.54,1.24c-.26.23-.58.4-.94.5-.37.11-.75.16-1.14.16Z"/>
    <path class="cls-2" d="m116.13,146.41c-.97,0-1.84-.21-2.6-.63-.76-.42-1.36-1-1.79-1.73-.43-.73-.65-1.57-.65-2.52s.22-1.79.65-2.52c.43-.73,1.03-1.3,1.79-1.72s1.63-.62,2.6-.62c.86,0,1.63.17,2.31.51.68.34,1.2.85,1.58,1.52l-1.31.85c-.31-.47-.69-.81-1.14-1.04-.45-.22-.93-.33-1.45-.33-.62,0-1.18.14-1.67.41-.49.28-.88.66-1.17,1.16s-.43,1.09-.43,1.77.14,1.28.43,1.78.68.89,1.17,1.17c.49.28,1.05.41,1.67.41.52,0,1-.11,1.45-.33.45-.22.83-.57,1.14-1.04l1.31.83c-.37.66-.9,1.17-1.58,1.52-.68.35-1.45.53-2.31.53Z"/>
    <path class="cls-2" d="m126.34,146.41c-.95,0-1.8-.21-2.55-.63-.75-.42-1.34-1-1.77-1.74-.43-.74-.65-1.58-.65-2.51s.22-1.79.65-2.51c.43-.73,1.02-1.3,1.76-1.72s1.6-.63,2.56-.63,1.8.21,2.55.62,1.34.99,1.76,1.72c.43.73.64,1.57.64,2.52s-.21,1.79-.64,2.52c-.43.73-1.01,1.31-1.76,1.73-.75.42-1.6.63-2.55.63Zm0-1.51c.61,0,1.16-.14,1.65-.41.49-.28.87-.67,1.14-1.18.28-.51.41-1.1.41-1.77s-.14-1.28-.41-1.77c-.28-.5-.66-.88-1.14-1.16-.49-.28-1.04-.41-1.65-.41s-1.16.14-1.64.41c-.48.28-.86.66-1.15,1.16s-.43,1.09-.43,1.77.14,1.26.43,1.77c.29.51.67.9,1.15,1.18.48.28,1.03.41,1.64.41Z"/>
    <path class="cls-2" d="m145.62,136.67c.77,0,1.45.15,2.03.45s1.05.76,1.38,1.37c.33.61.5,1.39.5,2.32v5.49h-1.73v-5.29c0-.92-.22-1.62-.65-2.09s-1.04-.7-1.82-.7c-.58,0-1.08.12-1.51.36s-.77.59-1,1.06-.35,1.05-.35,1.75v4.91h-1.73v-5.29c0-.92-.21-1.62-.64-2.09-.43-.47-1.04-.7-1.83-.7-.56,0-1.06.12-1.49.36s-.77.59-1.01,1.06c-.24.47-.36,1.05-.36,1.75v4.91h-1.73v-9.54h1.66v2.54l-.27-.65c.3-.62.76-1.11,1.39-1.46.62-.35,1.35-.52,2.18-.52.91,0,1.7.22,2.36.67.66.45,1.09,1.13,1.3,2.04l-.7-.29c.29-.73.79-1.32,1.51-1.76.72-.44,1.56-.67,2.52-.67Z"/>
    <path class="cls-2" d="m156.96,146.41c-1.02,0-1.92-.21-2.69-.63-.77-.42-1.37-1-1.8-1.73-.43-.73-.64-1.57-.64-2.52s.21-1.79.62-2.52c.41-.73.98-1.3,1.71-1.72s1.54-.62,2.46-.62,1.74.2,2.45.61c.71.41,1.26.98,1.67,1.72.4.74.6,1.6.6,2.58,0,.07,0,.16,0,.25,0,.1-.02.19-.03.27h-8.12v-1.24h7.22l-.7.43c.01-.61-.11-1.16-.38-1.64-.26-.48-.63-.86-1.09-1.12-.46-.27-1-.41-1.61-.41s-1.13.13-1.6.41c-.47.27-.83.65-1.1,1.13-.26.49-.4,1.04-.4,1.67v.29c0,.64.15,1.2.44,1.7.29.5.7.88,1.23,1.16.53.28,1.13.41,1.82.41.56,0,1.08-.1,1.54-.29.46-.19.87-.48,1.21-.86l.95,1.12c-.43.5-.97.89-1.61,1.15-.64.26-1.36.4-2.15.4Z"/>
    <path class="cls-2" d="m166.46,146.41c-.79,0-1.55-.11-2.26-.32-.71-.22-1.28-.48-1.68-.79l.72-1.37c.41.28.91.51,1.51.7.6.19,1.21.29,1.84.29.8,0,1.38-.11,1.74-.34.35-.23.53-.55.53-.95,0-.3-.11-.53-.32-.7-.22-.17-.5-.29-.85-.38s-.75-.16-1.18-.23c-.43-.07-.86-.15-1.3-.25-.43-.1-.83-.25-1.19-.43-.36-.19-.65-.44-.86-.77s-.32-.77-.32-1.32.16-1.08.49-1.51c.32-.43.78-.76,1.38-1,.59-.23,1.3-.35,2.11-.35.62,0,1.26.08,1.9.22.64.15,1.17.36,1.57.64l-.74,1.37c-.43-.29-.88-.49-1.35-.59-.47-.11-.94-.16-1.4-.16-.76,0-1.32.12-1.69.37s-.56.56-.56.95c0,.32.11.57.33.75s.51.31.86.4c.35.1.75.18,1.18.24.43.07.86.15,1.3.25.43.1.82.24,1.18.42.35.18.64.43.86.76.22.32.33.76.33,1.3,0,.58-.17,1.07-.5,1.49-.34.42-.81.75-1.42.98-.61.23-1.34.35-2.2.35Z"/>
  </g>
</svg>